%TF.GenerationSoftware,KiCad,Pcbnew,(5.1.10)-1*%
%TF.CreationDate,2021-09-21T14:48:15-05:00*%
%TF.ProjectId,SkidSteer_PCB,536b6964-5374-4656-9572-5f5043422e6b,rev?*%
%TF.SameCoordinates,Original*%
%TF.FileFunction,Copper,L4,Bot*%
%TF.FilePolarity,Positive*%
%FSLAX46Y46*%
G04 Gerber Fmt 4.6, Leading zero omitted, Abs format (unit mm)*
G04 Created by KiCad (PCBNEW (5.1.10)-1) date 2021-09-21 14:48:15*
%MOMM*%
%LPD*%
G01*
G04 APERTURE LIST*
%TA.AperFunction,ComponentPad*%
%ADD10C,0.600000*%
%TD*%
%TA.AperFunction,SMDPad,CuDef*%
%ADD11R,4.500000X2.950000*%
%TD*%
%TA.AperFunction,ComponentPad*%
%ADD12R,1.700000X1.700000*%
%TD*%
%TA.AperFunction,ComponentPad*%
%ADD13O,1.700000X1.700000*%
%TD*%
%TA.AperFunction,ComponentPad*%
%ADD14C,3.000000*%
%TD*%
%TA.AperFunction,ComponentPad*%
%ADD15C,3.500000*%
%TD*%
%TA.AperFunction,ComponentPad*%
%ADD16R,3.500000X3.500000*%
%TD*%
%TA.AperFunction,ComponentPad*%
%ADD17C,1.400000*%
%TD*%
%TA.AperFunction,ComponentPad*%
%ADD18R,2.600000X2.600000*%
%TD*%
%TA.AperFunction,ComponentPad*%
%ADD19C,2.600000*%
%TD*%
%TA.AperFunction,ComponentPad*%
%ADD20C,6.400000*%
%TD*%
%TA.AperFunction,ComponentPad*%
%ADD21C,0.800000*%
%TD*%
%TA.AperFunction,ComponentPad*%
%ADD22O,1.700000X0.900000*%
%TD*%
%TA.AperFunction,ComponentPad*%
%ADD23O,2.400000X0.900000*%
%TD*%
%TA.AperFunction,ComponentPad*%
%ADD24C,0.700000*%
%TD*%
%TA.AperFunction,ComponentPad*%
%ADD25C,2.000000*%
%TD*%
%TA.AperFunction,ViaPad*%
%ADD26C,0.800000*%
%TD*%
%TA.AperFunction,ViaPad*%
%ADD27C,0.500000*%
%TD*%
%TA.AperFunction,Conductor*%
%ADD28C,0.600000*%
%TD*%
%TA.AperFunction,Conductor*%
%ADD29C,0.250000*%
%TD*%
%TA.AperFunction,Conductor*%
%ADD30C,0.800000*%
%TD*%
%TA.AperFunction,Conductor*%
%ADD31C,0.293370*%
%TD*%
G04 APERTURE END LIST*
D10*
%TO.P,U5,9*%
%TO.N,GND*%
X88696900Y-155107900D03*
X89796900Y-155107900D03*
X89796900Y-153907900D03*
X88696900Y-153907900D03*
X92296900Y-155107900D03*
X91096900Y-155107900D03*
X91096900Y-153907900D03*
X92296900Y-153907900D03*
D11*
X90496900Y-154507900D03*
%TD*%
D12*
%TO.P,J4,1*%
%TO.N,GND*%
X149905720Y-123210320D03*
D13*
%TO.P,J4,2*%
%TO.N,I2C2_SDA*%
X147365720Y-123210320D03*
%TO.P,J4,3*%
%TO.N,I2C2_SCL*%
X149905720Y-120670320D03*
%TO.P,J4,4*%
%TO.N,GND*%
X147365720Y-120670320D03*
%TO.P,J4,5*%
X149905720Y-118130320D03*
%TO.P,J4,6*%
X147365720Y-118130320D03*
%TO.P,J4,7*%
%TO.N,Net-(J4-Pad7)*%
X149905720Y-115590320D03*
%TO.P,J4,8*%
%TO.N,PB14*%
X147365720Y-115590320D03*
%TO.P,J4,9*%
%TO.N,USART3_CLK*%
X149905720Y-113050320D03*
%TO.P,J4,10*%
%TO.N,PB5*%
X147365720Y-113050320D03*
%TO.P,J4,11*%
%TO.N,GND*%
X149905720Y-110510320D03*
%TO.P,J4,12*%
X147365720Y-110510320D03*
%TO.P,J4,13*%
%TO.N,+5V*%
X149905720Y-107970320D03*
%TO.P,J4,14*%
%TO.N,+3V3*%
X147365720Y-107970320D03*
%TO.P,J4,15*%
%TO.N,PC13*%
X149905720Y-105430320D03*
%TO.P,J4,16*%
%TO.N,SPI2_MISO*%
X147365720Y-105430320D03*
%TO.P,J4,17*%
%TO.N,SPI2_MOSI*%
X149905720Y-102890320D03*
%TO.P,J4,18*%
%TO.N,SPI2_SCK*%
X147365720Y-102890320D03*
%TO.P,J4,19*%
%TO.N,+5V*%
X149905720Y-100350320D03*
%TO.P,J4,20*%
X147365720Y-100350320D03*
%TO.P,J4,21*%
%TO.N,+3V3*%
X149905720Y-97810320D03*
%TO.P,J4,22*%
%TO.N,CAN1_TX*%
X147365720Y-97810320D03*
%TO.P,J4,23*%
%TO.N,CAN1_RX*%
X149905720Y-95270320D03*
%TO.P,J4,24*%
%TO.N,+3V3*%
X147365720Y-95270320D03*
%TD*%
D12*
%TO.P,J16,1*%
%TO.N,+5V*%
X149651720Y-82633820D03*
D13*
%TO.P,J16,2*%
%TO.N,encoderAMotorBL*%
X149651720Y-85173820D03*
%TO.P,J16,3*%
%TO.N,encoderBMotorBL*%
X149651720Y-87713820D03*
%TO.P,J16,4*%
%TO.N,GND*%
X149651720Y-90253820D03*
%TD*%
%TO.P,J15,4*%
%TO.N,GND*%
X149397720Y-77172820D03*
%TO.P,J15,3*%
%TO.N,encoderBMotorBR*%
X149397720Y-74632820D03*
%TO.P,J15,2*%
%TO.N,encoderAMotorBR*%
X149397720Y-72092820D03*
D12*
%TO.P,J15,1*%
%TO.N,+5V*%
X149397720Y-69552820D03*
%TD*%
D13*
%TO.P,J14,4*%
%TO.N,GND*%
X149270720Y-63710820D03*
%TO.P,J14,3*%
%TO.N,encoderBMotorFL*%
X149270720Y-61170820D03*
%TO.P,J14,2*%
%TO.N,encoderAMotorFL*%
X149270720Y-58630820D03*
D12*
%TO.P,J14,1*%
%TO.N,+5V*%
X149270720Y-56090820D03*
%TD*%
D14*
%TO.P,TP5,1*%
%TO.N,VDDA*%
X86844000Y-91382000D03*
%TD*%
D12*
%TO.P,J12,1*%
%TO.N,VBAT*%
X81400000Y-31100000D03*
D13*
%TO.P,J12,2*%
%TO.N,TMS*%
X81400000Y-28560000D03*
%TO.P,J12,3*%
%TO.N,GND*%
X83940000Y-31100000D03*
%TO.P,J12,4*%
%TO.N,TCK*%
X83940000Y-28560000D03*
%TO.P,J12,5*%
%TO.N,GND*%
X86480000Y-31100000D03*
%TO.P,J12,6*%
%TO.N,SWO*%
X86480000Y-28560000D03*
%TO.P,J12,7*%
%TO.N,Net-(J12-Pad7)*%
X89020000Y-31100000D03*
%TO.P,J12,8*%
%TO.N,Net-(J12-Pad8)*%
X89020000Y-28560000D03*
%TO.P,J12,9*%
%TO.N,GND*%
X91560000Y-31100000D03*
%TO.P,J12,10*%
%TO.N,NRST*%
X91560000Y-28560000D03*
%TD*%
D14*
%TO.P,TP4,1*%
%TO.N,+3V3*%
X101000000Y-133500000D03*
%TD*%
%TO.P,TP2,1*%
%TO.N,+5V*%
X101100000Y-142600000D03*
%TD*%
D15*
%TO.P,J1,2*%
%TO.N,+BATT*%
X38862000Y-157654000D03*
D16*
%TO.P,J1,1*%
%TO.N,GND*%
X38862000Y-152654000D03*
D17*
%TO.P,J1,*%
%TO.N,*%
X28862000Y-160654000D03*
X28862000Y-149654000D03*
%TD*%
D13*
%TO.P,J3,2*%
%TO.N,STLK_RX*%
X77040000Y-28500000D03*
D12*
%TO.P,J3,1*%
%TO.N,STLK_TX*%
X74500000Y-28500000D03*
%TD*%
D13*
%TO.P,J21,2*%
%TO.N,SCB_RX*%
X149743160Y-128127760D03*
D12*
%TO.P,J21,1*%
%TO.N,SCB_TX*%
X149743160Y-130667760D03*
%TD*%
D18*
%TO.P,J5,1*%
%TO.N,MotorFR+*%
X31400000Y-52500000D03*
D19*
%TO.P,J5,2*%
%TO.N,MotorFR-*%
X31400000Y-57580000D03*
%TD*%
%TO.P,J6,2*%
%TO.N,MotorFL-*%
X31400000Y-77980000D03*
D18*
%TO.P,J6,1*%
%TO.N,MotorFL+*%
X31400000Y-72900000D03*
%TD*%
%TO.P,J7,1*%
%TO.N,MotorBR+*%
X31400000Y-92766280D03*
D19*
%TO.P,J7,2*%
%TO.N,MotorBR-*%
X31400000Y-97846280D03*
%TD*%
%TO.P,J8,2*%
%TO.N,MotorBL-*%
X31500000Y-118935480D03*
D18*
%TO.P,J8,1*%
%TO.N,MotorBL+*%
X31500000Y-113855480D03*
%TD*%
D19*
%TO.P,J9,2*%
%TO.N,pwmMotorFR*%
X99120000Y-32300000D03*
D18*
%TO.P,J9,1*%
%TO.N,pwmMotorFL*%
X104200000Y-32300000D03*
%TD*%
D19*
%TO.P,J10,2*%
%TO.N,pwmMotorBR*%
X112120000Y-32300000D03*
D18*
%TO.P,J10,1*%
%TO.N,pwmMotorBL*%
X117200000Y-32300000D03*
%TD*%
D12*
%TO.P,J13,1*%
%TO.N,+5V*%
X149207220Y-43708320D03*
D13*
%TO.P,J13,2*%
%TO.N,encoderAMotorFR*%
X149207220Y-46248320D03*
%TO.P,J13,3*%
%TO.N,encoderBMotorFR*%
X149207220Y-48788320D03*
%TO.P,J13,4*%
%TO.N,GND*%
X149207220Y-51328320D03*
%TD*%
D18*
%TO.P,J17,1*%
%TO.N,VCC*%
X63957200Y-165500000D03*
D19*
%TO.P,J17,2*%
%TO.N,GND*%
X69037200Y-165500000D03*
%TD*%
%TO.P,J18,2*%
%TO.N,GND*%
X82296000Y-165608000D03*
D18*
%TO.P,J18,1*%
%TO.N,VCC*%
X77216000Y-165608000D03*
%TD*%
D20*
%TO.P,H1,1*%
%TO.N,GND*%
X33500000Y-166500000D03*
D21*
X35900000Y-166500000D03*
X35197056Y-168197056D03*
X33500000Y-168900000D03*
X31802944Y-168197056D03*
X31100000Y-166500000D03*
X31802944Y-164802944D03*
X33500000Y-164100000D03*
X35197056Y-164802944D03*
%TD*%
D20*
%TO.P,H2,1*%
%TO.N,GND*%
X144000000Y-166500000D03*
D21*
X146400000Y-166500000D03*
X145697056Y-168197056D03*
X144000000Y-168900000D03*
X142302944Y-168197056D03*
X141600000Y-166500000D03*
X142302944Y-164802944D03*
X144000000Y-164100000D03*
X145697056Y-164802944D03*
%TD*%
D20*
%TO.P,H3,1*%
%TO.N,GND*%
X144500000Y-33500000D03*
D21*
X146900000Y-33500000D03*
X146197056Y-35197056D03*
X144500000Y-35900000D03*
X142802944Y-35197056D03*
X142100000Y-33500000D03*
X142802944Y-31802944D03*
X144500000Y-31100000D03*
X146197056Y-31802944D03*
%TD*%
%TO.P,H4,1*%
%TO.N,GND*%
X33697056Y-31802944D03*
X32000000Y-31100000D03*
X30302944Y-31802944D03*
X29600000Y-33500000D03*
X30302944Y-35197056D03*
X32000000Y-35900000D03*
X33697056Y-35197056D03*
X34400000Y-33500000D03*
D20*
X32000000Y-33500000D03*
%TD*%
D22*
%TO.P,J19,S1*%
%TO.N,Net-(J19-PadS1)*%
X150664000Y-150434000D03*
X150664000Y-159084000D03*
D23*
X147284000Y-150434000D03*
X147284000Y-159084000D03*
D24*
%TO.P,J19,B6*%
%TO.N,Net-(J19-PadB6)*%
X147654000Y-154334000D03*
%TO.P,J19,B1*%
%TO.N,GND*%
X147654000Y-151784000D03*
%TO.P,J19,B4*%
%TO.N,VDD_SBC*%
X147654000Y-152634000D03*
%TO.P,J19,B5*%
%TO.N,Net-(J19-PadB5)*%
X147654000Y-153484000D03*
%TO.P,J19,B12*%
%TO.N,GND*%
X147654000Y-157734000D03*
%TO.P,J19,B8*%
%TO.N,Net-(J19-PadB8)*%
X147654000Y-156034000D03*
%TO.P,J19,B7*%
%TO.N,Net-(J19-PadB7)*%
X147654000Y-155184000D03*
%TO.P,J19,B9*%
%TO.N,VDD_SBC*%
X147654000Y-156884000D03*
%TO.P,J19,A12*%
%TO.N,GND*%
X146304000Y-151784000D03*
%TO.P,J19,A9*%
%TO.N,VDD_SBC*%
X146304000Y-152634000D03*
%TO.P,J19,A8*%
%TO.N,Net-(J19-PadA8)*%
X146304000Y-153484000D03*
%TO.P,J19,A7*%
%TO.N,Net-(J19-PadA7)*%
X146304000Y-154334000D03*
%TO.P,J19,A6*%
%TO.N,Net-(J19-PadA6)*%
X146304000Y-155184000D03*
%TO.P,J19,A5*%
%TO.N,Net-(J19-PadA5)*%
X146304000Y-156034000D03*
%TO.P,J19,A4*%
%TO.N,VDD_SBC*%
X146304000Y-156884000D03*
%TO.P,J19,A1*%
%TO.N,GND*%
X146304000Y-157734000D03*
%TD*%
%TO.P,J20,A1*%
%TO.N,GND*%
X31343600Y-134924800D03*
%TO.P,J20,A4*%
%TO.N,Net-(J20-PadA4)*%
X31343600Y-135774800D03*
%TO.P,J20,A5*%
%TO.N,Net-(J20-PadA5)*%
X31343600Y-136624800D03*
%TO.P,J20,A6*%
%TO.N,Net-(J20-PadA6)*%
X31343600Y-137474800D03*
%TO.P,J20,A7*%
%TO.N,Net-(J20-PadA7)*%
X31343600Y-138324800D03*
%TO.P,J20,A8*%
%TO.N,Net-(J20-PadA8)*%
X31343600Y-139174800D03*
%TO.P,J20,A9*%
%TO.N,Net-(J20-PadA4)*%
X31343600Y-140024800D03*
%TO.P,J20,A12*%
%TO.N,GND*%
X31343600Y-140874800D03*
%TO.P,J20,B9*%
%TO.N,Net-(J20-PadA4)*%
X29993600Y-135774800D03*
%TO.P,J20,B7*%
%TO.N,Net-(J20-PadB7)*%
X29993600Y-137474800D03*
%TO.P,J20,B8*%
%TO.N,Net-(J20-PadB8)*%
X29993600Y-136624800D03*
%TO.P,J20,B12*%
%TO.N,GND*%
X29993600Y-134924800D03*
%TO.P,J20,B5*%
%TO.N,Net-(J20-PadB5)*%
X29993600Y-139174800D03*
%TO.P,J20,B4*%
%TO.N,Net-(J20-PadA4)*%
X29993600Y-140024800D03*
%TO.P,J20,B1*%
%TO.N,GND*%
X29993600Y-140874800D03*
%TO.P,J20,B6*%
%TO.N,Net-(J20-PadB6)*%
X29993600Y-138324800D03*
D23*
%TO.P,J20,S1*%
%TO.N,Net-(J20-PadS1)*%
X30363600Y-133574800D03*
X30363600Y-142224800D03*
D22*
X26983600Y-133574800D03*
X26983600Y-142224800D03*
%TD*%
D12*
%TO.P,JP1,1*%
%TO.N,+5V*%
X84328000Y-141732000D03*
D13*
%TO.P,JP1,2*%
%TO.N,Net-(C16-Pad1)*%
X84328000Y-139192000D03*
%TD*%
%TO.P,JP2,2*%
%TO.N,Net-(J20-PadA4)*%
X41402000Y-136144000D03*
D12*
%TO.P,JP2,1*%
%TO.N,+5V*%
X43942000Y-136144000D03*
%TD*%
D11*
%TO.P,U2,9*%
%TO.N,GND*%
X60205100Y-134344200D03*
D10*
X62005100Y-133744200D03*
X60805100Y-133744200D03*
X60805100Y-134944200D03*
X62005100Y-134944200D03*
X58405100Y-133744200D03*
X59505100Y-133744200D03*
X59505100Y-134944200D03*
X58405100Y-134944200D03*
%TD*%
D25*
%TO.P,SW1,2*%
%TO.N,NRST*%
X126771400Y-164892600D03*
%TO.P,SW1,1*%
%TO.N,GND*%
X126771400Y-169392600D03*
%TO.P,SW1,2*%
%TO.N,NRST*%
X120271400Y-164892600D03*
%TO.P,SW1,1*%
%TO.N,GND*%
X120271400Y-169392600D03*
%TD*%
%TO.P,SW2,1*%
%TO.N,PC13*%
X46000000Y-28900000D03*
%TO.P,SW2,2*%
%TO.N,GND*%
X46000000Y-33400000D03*
%TO.P,SW2,1*%
%TO.N,PC13*%
X39500000Y-28900000D03*
%TO.P,SW2,2*%
%TO.N,GND*%
X39500000Y-33400000D03*
%TD*%
D18*
%TO.P,J2,1*%
%TO.N,VDD_SBC*%
X147574000Y-141986000D03*
D19*
%TO.P,J2,2*%
%TO.N,GND*%
X147574000Y-136906000D03*
%TD*%
D26*
%TO.N,+3V3*%
X91500000Y-134500000D03*
X91500000Y-133500000D03*
X92456000Y-133477000D03*
X93472000Y-133477000D03*
X93497400Y-134543800D03*
X92456000Y-134493000D03*
X89712800Y-120548400D03*
X90855800Y-120548400D03*
X42300000Y-142700000D03*
X54400000Y-145200000D03*
X37200000Y-31000000D03*
X50538000Y-109982000D03*
X50030000Y-123190000D03*
X49268000Y-101854000D03*
X50665000Y-89154000D03*
X141150000Y-121450000D03*
X141150000Y-123450000D03*
X139300000Y-95550000D03*
X139300000Y-97750000D03*
X49350000Y-81950000D03*
X50450000Y-69450000D03*
X49227000Y-61854000D03*
X50477000Y-49304000D03*
D27*
X63246000Y-40894000D03*
D26*
%TO.N,GND*%
X50157000Y-96139000D03*
X101974000Y-93400000D03*
X92500000Y-168099400D03*
X92500000Y-167000000D03*
X92500000Y-166000000D03*
X50673000Y-167944800D03*
X50723800Y-168859200D03*
X102000000Y-149500000D03*
X108000000Y-160750000D03*
X88000000Y-158750000D03*
X88000000Y-159750000D03*
X88000000Y-160750000D03*
X57962800Y-139039600D03*
X58000000Y-139979400D03*
X58000000Y-141250000D03*
X58000000Y-142250000D03*
X88000000Y-161750000D03*
X72794800Y-151607800D03*
X66852800Y-149983800D03*
X79000000Y-141250000D03*
X92202000Y-142494000D03*
X93500000Y-140700000D03*
X92202000Y-138430000D03*
X91200000Y-130700000D03*
X91211400Y-131800000D03*
X84536000Y-129948000D03*
X83566000Y-133858000D03*
X72800000Y-129200000D03*
X62966600Y-145821400D03*
X62941200Y-146710400D03*
X62915800Y-147599400D03*
X91924000Y-86556000D03*
X90349200Y-86479800D03*
X89104600Y-87546600D03*
X87470600Y-79176000D03*
X82593800Y-75975600D03*
X83025600Y-83519400D03*
X97663000Y-76835000D03*
X102532800Y-75289800D03*
X109797200Y-94339800D03*
X103886000Y-66929000D03*
X141986000Y-156464000D03*
X111626000Y-91495000D03*
X36100000Y-139200000D03*
X34800000Y-134400000D03*
X33200000Y-131500000D03*
X34800000Y-140700000D03*
X40200000Y-141300000D03*
X42400000Y-147200000D03*
X54400000Y-143300000D03*
X49100000Y-146000000D03*
X85950000Y-65600000D03*
X91650000Y-65800000D03*
X48300000Y-33500000D03*
X37300000Y-33600000D03*
X45966000Y-109982000D03*
X128000000Y-28100000D03*
X131400000Y-28100000D03*
X134800000Y-28200000D03*
X46982000Y-123190000D03*
X50284000Y-117348000D03*
X47236000Y-101854000D03*
X45712000Y-89154000D03*
X112250000Y-78400000D03*
X47250000Y-82050000D03*
X50150000Y-76350000D03*
X45900000Y-69050000D03*
X47127000Y-61954000D03*
X49977000Y-56304000D03*
X45427000Y-49254000D03*
X101409500Y-85915500D03*
X109601000Y-80772000D03*
D27*
X67818000Y-29718000D03*
X64770000Y-28956000D03*
X66040000Y-37338000D03*
X59944000Y-37338000D03*
X58166000Y-28194000D03*
%TO.N,currentMotorFR*%
X52254990Y-96323990D03*
X62484000Y-97790000D03*
X97155000Y-97282000D03*
X102108000Y-94869000D03*
%TO.N,NRST*%
X87122000Y-86868000D03*
X89408000Y-83820000D03*
X80010000Y-74168000D03*
X79756000Y-75946000D03*
X79756000Y-83566000D03*
X79756000Y-87185500D03*
D26*
%TO.N,+5V*%
X70171400Y-153596800D03*
X69300000Y-153300000D03*
X68500000Y-152700000D03*
X66600000Y-151600000D03*
X67500000Y-152700000D03*
X66600000Y-152600000D03*
D27*
%TO.N,currentMotorFL*%
X53467000Y-100584000D03*
X62738000Y-100457000D03*
X98425000Y-98679000D03*
X102688697Y-96608685D03*
%TO.N,currentMotorBR*%
X50987000Y-93472000D03*
X63246000Y-96393000D03*
X95250000Y-96266000D03*
X104267000Y-88392000D03*
%TO.N,currentMotorBL*%
X52451000Y-101727000D03*
X62865000Y-101727000D03*
X99568000Y-100965000D03*
X107315000Y-95377000D03*
D26*
%TO.N,TCK*%
X85217000Y-34962000D03*
X96393000Y-44323000D03*
X103378000Y-46101000D03*
X114681000Y-57404000D03*
%TO.N,TMS*%
X78486000Y-34798000D03*
X79375000Y-36957000D03*
X92964000Y-40894000D03*
X95250000Y-42799000D03*
X108712000Y-46101000D03*
X119507000Y-57150000D03*
%TO.N,SWO*%
X88138000Y-33782000D03*
X107696000Y-62484000D03*
D27*
%TO.N,STLK_RX*%
X76962000Y-73660000D03*
X76962000Y-75946000D03*
X76962000Y-83312000D03*
X76962000Y-88138000D03*
D26*
%TO.N,STLK_TX*%
X74549000Y-76327000D03*
X74041000Y-90805000D03*
X74676000Y-74041000D03*
X74041000Y-83185000D03*
D27*
X98806000Y-91821000D03*
X95504000Y-93091000D03*
D26*
%TO.N,SCB_RX*%
X126111000Y-125984000D03*
X122428000Y-119380000D03*
X135001000Y-102235000D03*
X109207080Y-79852853D03*
D27*
%TO.N,pwmMotorFL*%
X106934000Y-39751000D03*
X112014000Y-43942000D03*
X119888000Y-46101000D03*
X124460000Y-52324000D03*
%TO.N,pwmMotorFR*%
X99060000Y-39751000D03*
X101854000Y-42037000D03*
X122301000Y-45339000D03*
X125984000Y-52705000D03*
%TO.N,pwmMotorBR*%
X113538000Y-40259000D03*
X121539000Y-56134000D03*
%TO.N,pwmMotorBL*%
X120142000Y-39624000D03*
X122936000Y-54229000D03*
D26*
%TO.N,SDIO_D3*%
X82169000Y-52832000D03*
X92329000Y-53340000D03*
X95250000Y-54991000D03*
D27*
X65786000Y-42926000D03*
D26*
%TO.N,SDIO_CMD*%
X78994000Y-54102000D03*
X90805000Y-56515000D03*
X95758000Y-58547000D03*
D27*
X63373000Y-42291000D03*
%TO.N,SDIO_CK*%
X58293000Y-72517000D03*
X58420000Y-77724000D03*
X58420000Y-83312000D03*
X62992000Y-91313000D03*
X65786000Y-95250000D03*
X65786000Y-100457000D03*
X99568000Y-105791000D03*
X111252000Y-95123000D03*
X112903000Y-91440000D03*
X107315000Y-88392000D03*
X67985921Y-46060079D03*
X69342000Y-28702000D03*
%TO.N,SDIO_D0*%
X72644000Y-44831000D03*
X77724000Y-47117000D03*
X92329000Y-47117000D03*
X94742000Y-47117000D03*
%TO.N,SDIO_D1*%
X78740000Y-51435000D03*
X92964000Y-51435000D03*
X94996000Y-51435000D03*
X73406000Y-50546000D03*
%TO.N,SDIO_D2*%
X71755000Y-73787000D03*
X71755000Y-76454000D03*
X71755000Y-82804000D03*
X72136000Y-92075000D03*
X75819000Y-95504000D03*
X83058000Y-102743000D03*
X99695000Y-103124000D03*
X107315000Y-103124000D03*
X109982000Y-100457000D03*
X107061000Y-92710000D03*
X65024000Y-40132000D03*
X52832000Y-29718000D03*
%TO.N,SD_Detect*%
X77724000Y-35687000D03*
X92710000Y-38100000D03*
X96520000Y-41148000D03*
X54864000Y-34036000D03*
D26*
%TO.N,encoderAMotorFR*%
X143891000Y-50419000D03*
X115951000Y-62865000D03*
%TO.N,encoderBMotorFR*%
X102870000Y-71882000D03*
D27*
%TO.N,encoderAMotorFL*%
X135382000Y-89916000D03*
X124333000Y-86674000D03*
D26*
%TO.N,encoderBMotorBR*%
X104648000Y-80264000D03*
%TO.N,encoderAMotorBR*%
X114300000Y-71755000D03*
X110573487Y-75394487D03*
X104605800Y-75585254D03*
D27*
%TO.N,encoderAMotorBL*%
X142875000Y-90170000D03*
X142240000Y-92710000D03*
X107315000Y-97790000D03*
X104775000Y-97790000D03*
X101207407Y-86791032D03*
X96774000Y-90805000D03*
%TO.N,encoderBMotorBL*%
X106934000Y-96012000D03*
X104648000Y-96012000D03*
X97536000Y-89154000D03*
X96774000Y-87122000D03*
%TO.N,Net-(R19-Pad2)*%
X122555000Y-90424000D03*
X119126000Y-93853000D03*
X106807000Y-99060000D03*
X104902000Y-99060000D03*
X104140000Y-98386685D03*
X103886000Y-95377000D03*
%TO.N,Net-(R21-Pad2)*%
X131191000Y-90297000D03*
X127381000Y-94234000D03*
X118110000Y-96520000D03*
X105884717Y-88409445D03*
D26*
%TO.N,VDD_SBC*%
X139319000Y-147701000D03*
X139319000Y-150876000D03*
X99000000Y-169600000D03*
X100000000Y-169600000D03*
X101000000Y-169600000D03*
X102000000Y-169600000D03*
X99000000Y-170600000D03*
X100000000Y-170600000D03*
X101000000Y-170600000D03*
X102000000Y-170600000D03*
X139319000Y-148717000D03*
X139319000Y-149733000D03*
X140716000Y-150876000D03*
X140716000Y-147701000D03*
X139319000Y-152019000D03*
D27*
%TO.N,PC13*%
X93980000Y-81343500D03*
X101473000Y-81343500D03*
D26*
X142494000Y-106553000D03*
X108077000Y-122428000D03*
X102616000Y-120650000D03*
X82804000Y-95377000D03*
X81915000Y-88265000D03*
X81470500Y-75120500D03*
D27*
X82550000Y-90551000D03*
D26*
%TO.N,VBAT*%
X103498000Y-93400000D03*
X111499000Y-89590000D03*
X108095400Y-94339800D03*
X101339000Y-75289800D03*
X92178000Y-92118600D03*
X89636600Y-114833400D03*
X90754200Y-114782600D03*
X111150000Y-78400000D03*
X97536000Y-78867000D03*
X86233000Y-59182000D03*
%TO.N,I2C2_SDA*%
X135128000Y-122174000D03*
X127762000Y-112014000D03*
X133604000Y-101600000D03*
X135636000Y-90822855D03*
X143256000Y-88265000D03*
X107825305Y-75522721D03*
D27*
%TO.N,I2C2_SCL*%
X139192000Y-117602000D03*
X133858000Y-114300000D03*
X120269000Y-95631000D03*
X113665000Y-90678000D03*
%TO.N,PB14*%
X134493000Y-111506000D03*
X126492000Y-98679000D03*
X120523000Y-88519000D03*
%TO.N,USART3_CLK*%
X144907000Y-114046000D03*
X136398000Y-110109000D03*
X123698000Y-96647000D03*
X115189000Y-90805000D03*
D26*
%TO.N,PB5*%
X145161000Y-39243000D03*
X105283000Y-70485000D03*
D27*
%TO.N,SPI2_MISO*%
X107315000Y-127635000D03*
X104775000Y-127000000D03*
X76200000Y-90170000D03*
X91440000Y-85157000D03*
%TO.N,SPI2_MOSI*%
X107315000Y-125095000D03*
X104775000Y-123825000D03*
X95250000Y-88900000D03*
X95250358Y-85728042D03*
%TO.N,SPI2_SCK*%
X133985000Y-93472000D03*
X131318000Y-89535000D03*
X126619000Y-88519000D03*
X123190000Y-88519000D03*
D26*
%TO.N,CAN1_TX*%
X144018000Y-99822000D03*
X117856000Y-77851000D03*
X113742621Y-79278629D03*
X103124000Y-81788000D03*
D27*
%TO.N,CAN1_RX*%
X141732000Y-93980000D03*
X136017000Y-85979000D03*
X129794000Y-84963000D03*
X116332000Y-81661000D03*
%TO.N,encoderBMotorFL*%
X144907000Y-64008000D03*
X137414000Y-87249000D03*
X134366000Y-87249000D03*
X128905000Y-86360000D03*
X125349000Y-85344000D03*
D26*
%TO.N,Net-(R16-Pad2)*%
X75354300Y-146604300D03*
X58250000Y-130000000D03*
%TO.N,Net-(R17-Pad2)*%
X88750000Y-150500000D03*
X105854300Y-167104300D03*
%TO.N,PB4*%
X138938000Y-60579000D03*
X105974376Y-73182650D03*
X144907000Y-118110000D03*
%TD*%
D28*
%TO.N,GND*%
X29993600Y-140874800D02*
X31343600Y-140874800D01*
X34625200Y-140874800D02*
X34800000Y-140700000D01*
X31343600Y-140874800D02*
X34625200Y-140874800D01*
X146304000Y-151784000D02*
X147654000Y-151784000D01*
X147654000Y-151784000D02*
X144380000Y-151784000D01*
X144380000Y-151784000D02*
X143256000Y-152908000D01*
X143256000Y-155194000D02*
X141986000Y-156464000D01*
X143256000Y-152908000D02*
X143256000Y-155194000D01*
D29*
%TO.N,currentMotorFR*%
X52254990Y-96323990D02*
X53467000Y-97536000D01*
X53721000Y-97790000D02*
X62484000Y-97790000D01*
X53467000Y-97536000D02*
X53721000Y-97790000D01*
X99568000Y-94869000D02*
X102108000Y-94869000D01*
X97155000Y-97282000D02*
X99568000Y-94869000D01*
%TO.N,NRST*%
X89408000Y-84582000D02*
X89408000Y-83820000D01*
X87122000Y-86868000D02*
X89408000Y-84582000D01*
X80010000Y-75692000D02*
X79756000Y-75946000D01*
X80010000Y-74168000D02*
X80010000Y-75692000D01*
X79756000Y-83566000D02*
X79756000Y-86487000D01*
X79756000Y-86487000D02*
X79756000Y-87185500D01*
D30*
%TO.N,+5V*%
X43942000Y-136144000D02*
X49530000Y-136144000D01*
X49530000Y-136144000D02*
X64886001Y-151500001D01*
X64886001Y-151500001D02*
X67890799Y-151500001D01*
D29*
%TO.N,currentMotorFL*%
X62611000Y-100584000D02*
X62738000Y-100457000D01*
X53467000Y-100584000D02*
X62611000Y-100584000D01*
X100618382Y-98679000D02*
X100918691Y-98378691D01*
X98425000Y-98679000D02*
X100618382Y-98679000D01*
X100918691Y-98378691D02*
X102688697Y-96608685D01*
X100838000Y-98459382D02*
X100918691Y-98378691D01*
%TO.N,currentMotorBR*%
X53908000Y-96393000D02*
X63246000Y-96393000D01*
X50987000Y-93472000D02*
X53908000Y-96393000D01*
X101473000Y-88900000D02*
X101981000Y-88392000D01*
X101473000Y-90043000D02*
X101473000Y-88900000D01*
X95250000Y-96266000D02*
X101473000Y-90043000D01*
X101981000Y-88392000D02*
X104267000Y-88392000D01*
%TO.N,currentMotorBL*%
X52451000Y-101727000D02*
X62865000Y-101727000D01*
X99568000Y-100965000D02*
X100711000Y-100965000D01*
X100711000Y-100965000D02*
X101981000Y-99695000D01*
X107023002Y-99695000D02*
X108712000Y-98006002D01*
X101981000Y-99695000D02*
X107023002Y-99695000D01*
X108712000Y-98006002D02*
X108712000Y-96774000D01*
X108712000Y-96774000D02*
X107315000Y-95377000D01*
X107315000Y-95377000D02*
X107315000Y-95377000D01*
D31*
%TO.N,TCK*%
X94578000Y-44323000D02*
X96393000Y-44323000D01*
X85217000Y-34962000D02*
X94578000Y-44323000D01*
X103378000Y-46101000D02*
X114681000Y-57404000D01*
%TO.N,TMS*%
X78486000Y-36068000D02*
X79375000Y-36957000D01*
X78486000Y-34798000D02*
X78486000Y-36068000D01*
X94869000Y-42799000D02*
X95250000Y-42799000D01*
X92964000Y-40894000D02*
X94869000Y-42799000D01*
X119507000Y-56896000D02*
X119507000Y-57150000D01*
X108712000Y-46101000D02*
X119507000Y-56896000D01*
%TO.N,SWO*%
X88138000Y-33782000D02*
X91440000Y-37084000D01*
X95509904Y-37084000D02*
X98552000Y-40126096D01*
X91440000Y-37084000D02*
X95509904Y-37084000D01*
X98552000Y-40126096D02*
X98552000Y-49911000D01*
X98552000Y-49911000D02*
X107696000Y-59055000D01*
X107696000Y-59055000D02*
X107696000Y-62484000D01*
%TO.N,STLK_RX*%
X76962000Y-73660000D02*
X76962000Y-75946000D01*
X76962000Y-83312000D02*
X76962000Y-88138000D01*
D29*
%TO.N,STLK_TX*%
X74676000Y-76200000D02*
X74549000Y-76327000D01*
X74676000Y-74041000D02*
X74676000Y-76200000D01*
X74041000Y-83185000D02*
X74041000Y-90805000D01*
X95504000Y-93091000D02*
X96774000Y-91821000D01*
X96774000Y-91821000D02*
X98806000Y-91821000D01*
D31*
%TO.N,SCB_RX*%
X126111000Y-123063000D02*
X122428000Y-119380000D01*
X126111000Y-125984000D02*
X126111000Y-123063000D01*
X135001000Y-102235000D02*
X135001000Y-97917000D01*
X135001000Y-97917000D02*
X135001000Y-96139000D01*
X135001000Y-96139000D02*
X138049000Y-93091000D01*
X138049000Y-93091000D02*
X138049000Y-90551000D01*
X138049000Y-90551000D02*
X135890000Y-88392000D01*
X135890000Y-88392000D02*
X133223000Y-88392000D01*
X133223000Y-88392000D02*
X131953000Y-87122000D01*
X131953000Y-87122000D02*
X131953000Y-86238904D01*
X131953000Y-86238904D02*
X131953000Y-85598000D01*
X109379541Y-80025314D02*
X109207080Y-79852853D01*
X126380314Y-80025314D02*
X109379541Y-80025314D01*
X131953000Y-85598000D02*
X126380314Y-80025314D01*
%TO.N,pwmMotorFL*%
X111125000Y-43942000D02*
X112014000Y-43942000D01*
X106934000Y-39751000D02*
X111125000Y-43942000D01*
X119888000Y-46101000D02*
X123317000Y-49530000D01*
X124460000Y-50673000D02*
X124460000Y-52324000D01*
X123317000Y-49530000D02*
X124460000Y-50673000D01*
%TO.N,pwmMotorFR*%
X99060000Y-39751000D02*
X101346000Y-42037000D01*
X101346000Y-42037000D02*
X101854000Y-42037000D01*
X125984000Y-49022000D02*
X125984000Y-52705000D01*
X122301000Y-45339000D02*
X125984000Y-49022000D01*
%TO.N,pwmMotorBR*%
X113538000Y-40259000D02*
X115951000Y-42672000D01*
X115951000Y-42672000D02*
X115951000Y-50546000D01*
X115951000Y-50546000D02*
X121539000Y-56134000D01*
%TO.N,pwmMotorBL*%
X120142000Y-39624000D02*
X117094000Y-42672000D01*
X117094000Y-42672000D02*
X117094000Y-48133000D01*
X122936000Y-53975000D02*
X122936000Y-54229000D01*
X117094000Y-48133000D02*
X122936000Y-53975000D01*
%TO.N,SDIO_D3*%
X70700686Y-43770782D02*
X77221904Y-50292000D01*
X70700686Y-43655590D02*
X70700686Y-43770782D01*
X69971096Y-42926000D02*
X70700686Y-43655590D01*
X65786000Y-42926000D02*
X69971096Y-42926000D01*
X81020096Y-52832000D02*
X82169000Y-52832000D01*
X78480096Y-50292000D02*
X81020096Y-52832000D01*
X77221904Y-50292000D02*
X78480096Y-50292000D01*
X93980000Y-54991000D02*
X95250000Y-54991000D01*
X92329000Y-53340000D02*
X93980000Y-54991000D01*
%TO.N,SDIO_CMD*%
X63373000Y-42291000D02*
X68580000Y-47498000D01*
X68580000Y-47498000D02*
X68580000Y-51689000D01*
X68580000Y-51689000D02*
X70993000Y-54102000D01*
X70993000Y-54102000D02*
X78994000Y-54102000D01*
X92837000Y-58547000D02*
X95758000Y-58547000D01*
X90805000Y-56515000D02*
X92837000Y-58547000D01*
%TO.N,SDIO_CK*%
X58293000Y-77597000D02*
X58420000Y-77724000D01*
X58293000Y-72517000D02*
X58293000Y-77597000D01*
X58420000Y-83312000D02*
X58420000Y-87376000D01*
X62357000Y-91313000D02*
X62992000Y-91313000D01*
X58420000Y-87376000D02*
X62357000Y-91313000D01*
X65786000Y-95250000D02*
X65786000Y-100457000D01*
X99568000Y-105791000D02*
X107188000Y-105791000D01*
X111252000Y-101727000D02*
X111252000Y-95123000D01*
X107188000Y-105791000D02*
X111252000Y-101727000D01*
X112211314Y-90748314D02*
X110560314Y-90748314D01*
X112903000Y-91440000D02*
X112211314Y-90748314D01*
X110560314Y-90748314D02*
X109855000Y-90043000D01*
X109855000Y-90043000D02*
X109855000Y-88773000D01*
X109855000Y-88773000D02*
X109474000Y-88392000D01*
X109474000Y-88392000D02*
X107315000Y-88392000D01*
X67985921Y-46060079D02*
X67735922Y-45810080D01*
X67735922Y-45637922D02*
X65770686Y-43672686D01*
X67735922Y-45810080D02*
X67735922Y-45637922D01*
X65452430Y-43672686D02*
X65024000Y-43244256D01*
X65770686Y-43672686D02*
X65452430Y-43672686D01*
X65024000Y-42582904D02*
X68490904Y-39116000D01*
X65024000Y-43244256D02*
X65024000Y-42582904D01*
X68490904Y-39116000D02*
X68490904Y-30315096D01*
X68490904Y-29553096D02*
X69342000Y-28702000D01*
X68490904Y-30315096D02*
X68490904Y-29553096D01*
%TO.N,SDIO_D0*%
X74930000Y-47117000D02*
X77724000Y-47117000D01*
X72644000Y-44831000D02*
X74930000Y-47117000D01*
X92329000Y-47117000D02*
X94742000Y-47117000D01*
%TO.N,SDIO_D1*%
X92964000Y-51435000D02*
X94996000Y-51435000D01*
X73406000Y-50546000D02*
X74295000Y-51435000D01*
X74295000Y-51435000D02*
X78740000Y-51435000D01*
%TO.N,SDIO_D2*%
X71755000Y-73787000D02*
X71755000Y-76454000D01*
X71755000Y-91694000D02*
X72136000Y-92075000D01*
X71755000Y-82804000D02*
X71755000Y-91694000D01*
X75819000Y-95504000D02*
X83058000Y-102743000D01*
X99695000Y-103124000D02*
X107315000Y-103124000D01*
X108453810Y-93593114D02*
X107447886Y-93593114D01*
X108842086Y-93981390D02*
X108453810Y-93593114D01*
X108842086Y-94698210D02*
X108842086Y-93981390D01*
X109982000Y-95838124D02*
X108842086Y-94698210D01*
X109982000Y-100457000D02*
X109982000Y-95838124D01*
X107061000Y-93206228D02*
X107061000Y-92710000D01*
X107447886Y-93593114D02*
X107061000Y-93206228D01*
X65024000Y-40132000D02*
X53086000Y-40132000D01*
X52832000Y-39878000D02*
X52832000Y-29718000D01*
X53086000Y-40132000D02*
X52832000Y-39878000D01*
D29*
%TO.N,SD_Detect*%
X75311000Y-35687000D02*
X77724000Y-35687000D01*
X95758000Y-41148000D02*
X96520000Y-41148000D01*
X92710000Y-38100000D02*
X95758000Y-41148000D01*
D31*
X75311000Y-35687000D02*
X75057000Y-35687000D01*
X75057000Y-35687000D02*
X72390000Y-33020000D01*
X72390000Y-29972000D02*
X70612000Y-28194000D01*
X72390000Y-33020000D02*
X72390000Y-29972000D01*
X70612000Y-28194000D02*
X70612000Y-27310904D01*
X70612000Y-27310904D02*
X70612000Y-27178000D01*
X70612000Y-27178000D02*
X70358000Y-26924000D01*
X70358000Y-26924000D02*
X55626000Y-26924000D01*
X54864000Y-27686000D02*
X54864000Y-34036000D01*
X55626000Y-26924000D02*
X54864000Y-27686000D01*
%TO.N,encoderAMotorFR*%
X143891000Y-50419000D02*
X141351000Y-50419000D01*
X141351000Y-50419000D02*
X138303000Y-53467000D01*
X138303000Y-53467000D02*
X133985000Y-53467000D01*
X133985000Y-53467000D02*
X129794000Y-57658000D01*
X129794000Y-57658000D02*
X127254000Y-57658000D01*
X127254000Y-57658000D02*
X122428000Y-62484000D01*
X122428000Y-62484000D02*
X116332000Y-62484000D01*
X116332000Y-62484000D02*
X115951000Y-62865000D01*
%TO.N,encoderBMotorFR*%
X149207220Y-48788320D02*
X144020540Y-53975000D01*
X144020540Y-53975000D02*
X141224000Y-53975000D01*
X141224000Y-53975000D02*
X135890000Y-59309000D01*
X135890000Y-59309000D02*
X131064000Y-59309000D01*
X131064000Y-59309000D02*
X122047000Y-68326000D01*
X122047000Y-68326000D02*
X114046000Y-68326000D01*
X110490000Y-71882000D02*
X102870000Y-71882000D01*
X114046000Y-68326000D02*
X110490000Y-71882000D01*
%TO.N,encoderAMotorFL*%
X135382000Y-89916000D02*
X132969000Y-89916000D01*
X132969000Y-89916000D02*
X130429000Y-87376000D01*
X130429000Y-87376000D02*
X124968000Y-87376000D01*
X124333000Y-86741000D02*
X124333000Y-86674000D01*
X124968000Y-87376000D02*
X124333000Y-86741000D01*
%TO.N,encoderBMotorBR*%
X116762636Y-79360380D02*
X114427000Y-77024744D01*
X126541636Y-79360380D02*
X116762636Y-79360380D01*
X131367636Y-84186380D02*
X126541636Y-79360380D01*
X146289379Y-90628365D02*
X144764686Y-92153058D01*
X144764686Y-100180410D02*
X144376410Y-100568686D01*
X143524620Y-99210284D02*
X143524620Y-89638716D01*
X144764686Y-92153058D02*
X144764686Y-100180410D01*
X144376410Y-100568686D02*
X143659590Y-100568686D01*
X143659590Y-100568686D02*
X143271314Y-100180410D01*
X143271314Y-100180410D02*
X143271314Y-99463590D01*
X138479636Y-84186380D02*
X131367636Y-84186380D01*
X143271314Y-99463590D02*
X143524620Y-99210284D01*
X143524620Y-89638716D02*
X142509314Y-88623410D01*
X142509314Y-88623410D02*
X142509314Y-88216058D01*
X142509314Y-88216058D02*
X138479636Y-84186380D01*
X107887256Y-77024744D02*
X104648000Y-80264000D01*
X114427000Y-77024744D02*
X107887256Y-77024744D01*
X147307919Y-76722621D02*
X149397720Y-74632820D01*
X146291919Y-77738621D02*
X147307919Y-76722621D01*
X146289379Y-77738621D02*
X146291919Y-77738621D01*
X146289379Y-77738621D02*
X146289379Y-90628365D01*
%TO.N,encoderAMotorBR*%
X149397720Y-72092820D02*
X145542000Y-68237100D01*
X145542000Y-68237100D02*
X143548100Y-68237100D01*
X143548100Y-68237100D02*
X138684000Y-63373000D01*
X130683000Y-63373000D02*
X123825000Y-70231000D01*
X138684000Y-63373000D02*
X130683000Y-63373000D01*
X123825000Y-70231000D02*
X122428000Y-71628000D01*
X122428000Y-71628000D02*
X114681000Y-71628000D01*
X114427000Y-71628000D02*
X114300000Y-71755000D01*
X114681000Y-71628000D02*
X114427000Y-71628000D01*
X105289953Y-76269407D02*
X104605800Y-75585254D01*
X109698567Y-76269407D02*
X105289953Y-76269407D01*
X110573487Y-75394487D02*
X109698567Y-76269407D01*
%TO.N,encoderAMotorBL*%
X142875000Y-92075000D02*
X142240000Y-92710000D01*
X142875000Y-90170000D02*
X142875000Y-92075000D01*
X107315000Y-97790000D02*
X104775000Y-97790000D01*
X96768096Y-90805000D02*
X100782064Y-86791032D01*
X100782064Y-86791032D02*
X101207407Y-86791032D01*
%TO.N,encoderBMotorBL*%
X106934000Y-96012000D02*
X104648000Y-96012000D01*
X97536000Y-87884000D02*
X96774000Y-87122000D01*
X97536000Y-89154000D02*
X97536000Y-87884000D01*
D29*
%TO.N,Net-(R19-Pad2)*%
X122555000Y-90424000D02*
X119761000Y-93218000D01*
X119761000Y-93218000D02*
X119126000Y-93853000D01*
X106807000Y-99060000D02*
X104902000Y-99060000D01*
X104140000Y-98386685D02*
X103632000Y-97878685D01*
X103632000Y-95631000D02*
X103886000Y-95377000D01*
X103632000Y-97878685D02*
X103632000Y-95631000D01*
%TO.N,Net-(R21-Pad2)*%
X127381000Y-94107000D02*
X127381000Y-94234000D01*
X131191000Y-90297000D02*
X127381000Y-94107000D01*
X118110000Y-96520000D02*
X115697000Y-94107000D01*
X110510402Y-93980000D02*
X109494402Y-92964000D01*
X112522000Y-93980000D02*
X110510402Y-93980000D01*
X109494402Y-92964000D02*
X109494402Y-91841402D01*
X106062445Y-88409445D02*
X105884717Y-88409445D01*
X109494402Y-91841402D02*
X106062445Y-88409445D01*
D31*
X115570000Y-93980000D02*
X115697000Y-94107000D01*
X112522000Y-93980000D02*
X115570000Y-93980000D01*
D29*
%TO.N,PC13*%
X93980000Y-81343500D02*
X101473000Y-81343500D01*
D31*
X142568006Y-106627006D02*
X142494000Y-106553000D01*
X148709034Y-106627006D02*
X142568006Y-106627006D01*
X149905720Y-105430320D02*
X148709034Y-106627006D01*
X104394000Y-122428000D02*
X102616000Y-120650000D01*
X108077000Y-122428000D02*
X104394000Y-122428000D01*
D29*
X82804000Y-95377000D02*
X82804000Y-91694000D01*
X81026000Y-87880598D02*
X81026000Y-75565000D01*
X81410402Y-88265000D02*
X81026000Y-87880598D01*
X81915000Y-88265000D02*
X81410402Y-88265000D01*
X81026000Y-75565000D02*
X81470500Y-75120500D01*
X82804000Y-91694000D02*
X82804000Y-90932000D01*
X82550000Y-90678000D02*
X82550000Y-90551000D01*
X82804000Y-90932000D02*
X82550000Y-90678000D01*
D31*
%TO.N,VBAT*%
X81400000Y-31100000D02*
X81400000Y-44062000D01*
X81400000Y-44062000D02*
X86233000Y-48895000D01*
X86233000Y-48895000D02*
X86233000Y-59182000D01*
X86233000Y-59182000D02*
X86233000Y-59182000D01*
%TO.N,I2C2_SDA*%
X127762000Y-114808000D02*
X127762000Y-112014000D01*
X135128000Y-122174000D02*
X127762000Y-114808000D01*
X133604000Y-101600000D02*
X133604000Y-95504000D01*
X135636000Y-93472000D02*
X135636000Y-90822855D01*
X133604000Y-95504000D02*
X135636000Y-93472000D01*
X107825305Y-75522721D02*
X107865279Y-75522721D01*
X108390990Y-75522721D02*
X107825305Y-75522721D01*
X108644296Y-75269415D02*
X108390990Y-75522721D01*
X109642585Y-75269415D02*
X108644296Y-75269415D01*
X112395000Y-72517000D02*
X109642585Y-75269415D01*
X118364000Y-75057000D02*
X118364000Y-73660000D01*
X118364000Y-73660000D02*
X117221000Y-72517000D01*
X116967000Y-76454000D02*
X118364000Y-75057000D01*
X116967000Y-78867000D02*
X116967000Y-76454000D01*
X126746000Y-78867000D02*
X116967000Y-78867000D01*
X131572000Y-83693000D02*
X126746000Y-78867000D01*
X117221000Y-72517000D02*
X112395000Y-72517000D01*
X138684000Y-83693000D02*
X131572000Y-83693000D01*
X143256000Y-88265000D02*
X138684000Y-83693000D01*
%TO.N,I2C2_SCL*%
X137160000Y-117602000D02*
X133858000Y-114300000D01*
X139192000Y-117602000D02*
X137160000Y-117602000D01*
X118618000Y-95631000D02*
X113665000Y-90678000D01*
X120269000Y-95631000D02*
X118618000Y-95631000D01*
%TO.N,PB14*%
X138577320Y-115590320D02*
X134493000Y-111506000D01*
X147365720Y-115590320D02*
X138577320Y-115590320D01*
X126492000Y-93477904D02*
X121533096Y-88519000D01*
X126492000Y-98679000D02*
X126492000Y-93477904D01*
X121533096Y-88519000D02*
X120523000Y-88519000D01*
%TO.N,USART3_CLK*%
X140970000Y-110109000D02*
X136398000Y-110109000D01*
X144907000Y-114046000D02*
X140970000Y-110109000D01*
X123698000Y-96647000D02*
X121666000Y-94615000D01*
X115194904Y-90805000D02*
X115189000Y-90805000D01*
X119004904Y-94615000D02*
X115194904Y-90805000D01*
X121666000Y-94615000D02*
X119004904Y-94615000D01*
%TO.N,PB5*%
X145161000Y-39243000D02*
X142113000Y-39243000D01*
X142113000Y-39243000D02*
X120777000Y-60579000D01*
X107225904Y-70485000D02*
X105283000Y-70485000D01*
X117131904Y-60579000D02*
X107225904Y-70485000D01*
X120777000Y-60579000D02*
X117131904Y-60579000D01*
%TO.N,SPI2_MISO*%
X105410000Y-127635000D02*
X104775000Y-127000000D01*
X107315000Y-127635000D02*
X105410000Y-127635000D01*
X91095886Y-86838210D02*
X91095886Y-85501114D01*
X88398782Y-89535314D02*
X91095886Y-86838210D01*
X91095886Y-85501114D02*
X91440000Y-85157000D01*
X76834686Y-89535314D02*
X88398782Y-89535314D01*
X76200000Y-90170000D02*
X76834686Y-89535314D01*
%TO.N,SPI2_MOSI*%
X106045000Y-125095000D02*
X104775000Y-123825000D01*
X107315000Y-125095000D02*
X106045000Y-125095000D01*
X95250000Y-85728400D02*
X95250358Y-85728042D01*
X95250000Y-88900000D02*
X95250000Y-85728400D01*
%TO.N,SPI2_SCK*%
X133985000Y-93472000D02*
X133985000Y-92202000D01*
X133985000Y-92202000D02*
X131318000Y-89535000D01*
X126619000Y-88519000D02*
X123190000Y-88519000D01*
%TO.N,CAN1_TX*%
X144018000Y-99822000D02*
X144018000Y-92202000D01*
X144018000Y-92202000D02*
X145796000Y-90424000D01*
X145796000Y-90424000D02*
X145796000Y-86233000D01*
X137584513Y-78021513D02*
X130726513Y-78021513D01*
X145796000Y-86233000D02*
X137584513Y-78021513D01*
X118026513Y-78021513D02*
X117856000Y-77851000D01*
X130726513Y-78021513D02*
X118026513Y-78021513D01*
X109737952Y-79278629D02*
X109072323Y-78613000D01*
X113742621Y-79278629D02*
X109737952Y-79278629D01*
X109072323Y-78613000D02*
X108458000Y-78613000D01*
X108458000Y-78613000D02*
X107696000Y-78613000D01*
X107696000Y-78613000D02*
X104521000Y-81788000D01*
X104521000Y-81788000D02*
X103124000Y-81788000D01*
%TO.N,CAN1_RX*%
X141482001Y-93730001D02*
X141482001Y-88269001D01*
X141732000Y-93980000D02*
X141482001Y-93730001D01*
X139192000Y-85979000D02*
X136017000Y-85979000D01*
X141482001Y-88269001D02*
X139192000Y-85979000D01*
X129544001Y-84713001D02*
X119384001Y-84713001D01*
X129794000Y-84963000D02*
X129544001Y-84713001D01*
X119384001Y-84713001D02*
X116586000Y-81915000D01*
X116586000Y-81915000D02*
X116332000Y-81661000D01*
%TO.N,encoderBMotorFL*%
X146547494Y-62367506D02*
X144907000Y-64008000D01*
X148074034Y-62367506D02*
X146547494Y-62367506D01*
X149270720Y-61170820D02*
X148074034Y-62367506D01*
X137414000Y-87249000D02*
X135382000Y-87249000D01*
X135382000Y-87249000D02*
X134366000Y-87249000D01*
X126365000Y-86360000D02*
X125349000Y-85344000D01*
X128905000Y-86360000D02*
X126365000Y-86360000D01*
D30*
%TO.N,Net-(J19-PadS1)*%
X147284000Y-150434000D02*
X150664000Y-150434000D01*
X150664000Y-150434000D02*
X150664000Y-159084000D01*
X148604001Y-151327999D02*
X147710002Y-150434000D01*
X148604001Y-158190001D02*
X148604001Y-151327999D01*
X148110001Y-158684001D02*
X148604001Y-158190001D01*
X147315999Y-158684001D02*
X148110001Y-158684001D01*
X147284000Y-158716000D02*
X147315999Y-158684001D01*
X147710002Y-150434000D02*
X147284000Y-150434000D01*
X147284000Y-159084000D02*
X147284000Y-158716000D01*
%TO.N,Net-(J20-PadA4)*%
X41402000Y-136144000D02*
X36056000Y-136144000D01*
X36056000Y-136144000D02*
X34400000Y-137800000D01*
X34400000Y-137800000D02*
X33100000Y-137800000D01*
D28*
X31751602Y-135774800D02*
X31343600Y-135774800D01*
X33100000Y-137123198D02*
X31751602Y-135774800D01*
X33100000Y-137800000D02*
X33100000Y-137123198D01*
X29993600Y-135774800D02*
X31343600Y-135774800D01*
X33100000Y-138676400D02*
X31751600Y-140024800D01*
X31751600Y-140024800D02*
X31343600Y-140024800D01*
X33100000Y-137800000D02*
X33100000Y-138676400D01*
X29993600Y-140024800D02*
X31343600Y-140024800D01*
%TO.N,Net-(J20-PadS1)*%
X26983600Y-142224800D02*
X30363600Y-142224800D01*
D30*
%TO.N,Net-(R16-Pad2)*%
X75354300Y-146604300D02*
X72604300Y-146604300D01*
X67660198Y-146604300D02*
X63750000Y-142694102D01*
X72604300Y-146604300D02*
X67660198Y-146604300D01*
X63750000Y-142694102D02*
X63750000Y-133084098D01*
X63750000Y-133084098D02*
X63750000Y-132250000D01*
X63750000Y-132250000D02*
X61500000Y-130000000D01*
X61500000Y-130000000D02*
X58250000Y-130000000D01*
%TO.N,Net-(R17-Pad2)*%
X103104300Y-167104300D02*
X98160198Y-167104300D01*
X92000000Y-150500000D02*
X88750000Y-150500000D01*
X105854300Y-167104300D02*
X103104300Y-167104300D01*
X98160198Y-167104300D02*
X94250000Y-163194102D01*
X94250000Y-163194102D02*
X94250000Y-153584098D01*
X94250000Y-152750000D02*
X92000000Y-150500000D01*
X94250000Y-153584098D02*
X94250000Y-152750000D01*
D31*
%TO.N,PB4*%
X107567761Y-74776035D02*
X105974376Y-73182650D01*
D29*
X151080721Y-118694321D02*
X151080721Y-66752721D01*
X150279723Y-119495319D02*
X151080721Y-118694321D01*
X146292319Y-119495319D02*
X150279723Y-119495319D01*
X144907000Y-118110000D02*
X146292319Y-119495319D01*
X151080721Y-66752721D02*
X150368000Y-66040000D01*
X144399000Y-66040000D02*
X138938000Y-60579000D01*
X150368000Y-66040000D02*
X144399000Y-66040000D01*
D31*
X107567761Y-74776035D02*
X109119965Y-74776035D01*
X109119965Y-74776035D02*
X113792000Y-70104000D01*
X113792000Y-70104000D02*
X122301000Y-70104000D01*
X131826000Y-60579000D02*
X138938000Y-60579000D01*
X122301000Y-70104000D02*
X131826000Y-60579000D01*
%TD*%
M02*
