M48
; DRILL file {KiCad (5.1.10)-1} date 09/21/21 14:50:35
; FORMAT={-:-/ absolute / inch / decimal}
; #@! TF.CreationDate,2021-09-21T14:50:35-05:00
; #@! TF.GenerationSoftware,Kicad,Pcbnew,(5.1.10)-1
FMAT,2
INCH
T1C0.0118
T2C0.0157
T3C0.0197
T4C0.0236
T5C0.0394
T6C0.0433
T7C0.0512
T8C0.0748
T9C0.0787
T10C0.1260
%
G90
G05
T1
X2.0074Y-3.68
X2.0573Y-3.7923
X2.065Y-4.005
X2.08Y-1.17
X2.105Y-3.96
X2.16Y-1.34
X2.29Y-1.11
X2.295Y-2.855
X2.2994Y-5.2655
X2.2994Y-5.3128
X2.3Y-3.06
X2.3Y-3.28
X2.3427Y-5.2655
X2.3427Y-5.3128
X2.36Y-1.47
X2.3939Y-5.2655
X2.3939Y-5.3128
X2.4411Y-5.2655
X2.4411Y-5.3128
X2.46Y-3.85
X2.47Y-3.955
X2.475Y-4.005
X2.48Y-3.595
X2.49Y-1.61
X2.49Y-3.795
X2.495Y-1.665
X2.55Y-1.14
X2.56Y-1.58
X2.59Y-1.69
X2.59Y-3.75
X2.59Y-3.955
X2.6Y-1.47
X2.67Y-1.17
X2.6766Y-1.8134
X2.73Y-1.13
X2.825Y-2.905
X2.825Y-3.01
X2.825Y-3.26
X2.84Y-3.625
X2.86Y-1.765
X2.89Y-1.99
X2.985Y-3.76
X3.0Y-3.55
X3.03Y-2.9
X3.03Y-2.99
X3.03Y-3.28
X3.03Y-3.47
X3.06Y-1.405
X3.06Y-1.855
X3.1Y-2.025
X3.14Y-2.99
X3.14Y-3.29
X3.14Y-3.4325
X3.15Y-2.92
X3.25Y-3.565
X3.27Y-4.045
X3.43Y-3.42
X3.492Y-6.0594
X3.492Y-6.1066
X3.52Y-3.3
X3.5353Y-6.0594
X3.5353Y-6.1066
X3.5865Y-6.0594
X3.5865Y-6.1066
X3.6Y-3.3526
X3.6337Y-6.0594
X3.6337Y-6.1066
X3.635Y-1.855
X3.65Y-1.5
X3.66Y-2.025
X3.7Y-3.2025
X3.73Y-1.855
X3.74Y-2.025
X3.75Y-3.5
X3.75Y-3.79
X3.75Y-3.3751
X3.76Y-3.665
X3.8Y-1.62
X3.81Y-3.43
X3.81Y-3.575
X3.825Y-3.83
X3.84Y-3.51
X3.875Y-3.885
X3.89Y-3.615
X3.9Y-1.565
X3.92Y-3.975
X3.92Y-4.165
X3.925Y-4.06
X3.9845Y-3.417
X3.995Y-3.2025
X4.01Y-1.655
X4.02Y-3.735
X4.0429Y-3.8035
X4.09Y-3.755
X4.1Y-3.8735
X4.105Y-3.48
X4.12Y-3.78
X4.125Y-3.85
X4.125Y-4.875
X4.125Y-5.0
X4.13Y-3.9
X4.1687Y-3.4807
X4.205Y-3.9
X4.21Y-1.565
X4.21Y-3.78
X4.215Y-3.65
X4.225Y-3.48
X4.225Y-3.755
X4.225Y-3.85
X4.225Y-4.06
X4.225Y-4.925
X4.225Y-5.025
X4.33Y-3.955
X4.38Y-3.745
X4.41Y-1.73
X4.445Y-3.6
X4.47Y-1.585
X4.475Y-3.57
X4.535Y-3.575
X4.58Y-3.215
X4.65Y-3.8
X4.69Y-3.695
X4.72Y-1.815
X4.73Y-1.56
X4.735Y-3.765
X4.745Y-3.485
X4.785Y-2.21
X4.815Y-1.785
X4.825Y-3.56
X4.84Y-2.135
X4.85Y-3.485
X4.87Y-3.805
X4.895Y-3.4124
X4.9Y-2.06
X4.935Y-3.36
X4.96Y-2.075
X4.98Y-3.885
X4.985Y-3.485
X5.015Y-3.71
X5.075Y-3.4
X5.11Y-3.345
X5.165Y-3.555
X5.17Y-3.525
X5.27Y-4.5
X5.275Y-3.68
X5.29Y-3.435
X5.295Y-4.39
X5.33Y-3.54
X5.355Y-3.385
X5.37Y-4.335
X5.41Y-3.435
X5.48Y-4.63
X5.58Y-3.7
X5.6Y-3.65
X5.625Y-3.55
X5.705Y-2.52
X5.705Y-4.49
T2
X1.1809Y-5.312
X1.1809Y-5.3455
X1.1809Y-5.3789
X1.1809Y-5.4124
X1.1809Y-5.4459
X1.1809Y-5.4793
X1.1809Y-5.5128
X1.1809Y-5.5463
X1.234Y-5.312
X1.234Y-5.3455
X1.234Y-5.3789
X1.234Y-5.4124
X1.234Y-5.4459
X1.234Y-5.4793
X1.234Y-5.5128
X1.234Y-5.5463
X1.3071Y-5.1772
X1.3701Y-5.2913
X1.3701Y-5.5394
X1.4213Y-5.4803
X1.4646Y-1.2205
X1.4685Y-1.3228
X1.5827Y-5.563
X1.6654Y-5.6181
X1.6693Y-5.7953
X1.7885Y-1.9391
X1.7997Y-3.51
X1.8071Y-2.7185
X1.8097Y-4.33
X1.8497Y-4.85
X1.8554Y-2.4391
X1.8597Y-4.01
X1.8602Y-3.2303
X1.9016Y-1.3189
X1.9331Y-5.748
X1.9381Y-2.4352
X1.9397Y-4.01
X1.9429Y-3.2264
X1.9676Y-2.2167
X1.9697Y-4.85
X1.9744Y-3.0059
X1.9747Y-3.785
X1.9797Y-4.62
X1.9862Y-2.7343
X1.9873Y-1.9411
X1.9897Y-4.33
X1.9947Y-3.51
X1.995Y-6.612
X1.997Y-6.648
X2.1417Y-5.6417
X2.1417Y-5.7165
X2.282Y-5.474
X2.2835Y-5.511
X2.2835Y-5.561
X2.2835Y-5.6004
X2.2933Y-5.1181
X2.477Y-5.811
X2.478Y-5.776
X2.479Y-5.741
X2.622Y-5.9685
X2.622Y-6.0079
X2.632Y-5.9049
X2.6575Y-6.0118
X2.6969Y-6.0118
X2.7283Y-6.0354
X2.7627Y-6.0471
X2.8659Y-5.9688
X2.8661Y-5.0866
X2.915Y-3.275
X2.915Y-3.575
X2.935Y-3.005
X2.94Y-2.915
X2.9667Y-5.7718
X3.09Y-1.37
X3.11Y-2.13
X3.1102Y-5.561
X3.125Y-1.455
X3.2075Y-2.9575
X3.225Y-3.475
X3.235Y-2.08
X3.2517Y-2.9912
X3.26Y-3.755
X3.2687Y-3.2882
X3.29Y-5.27
X3.3282Y-5.1161
X3.355Y-1.3765
X3.3839Y-2.5827
X3.395Y-2.33
X3.4437Y-3.1172
X3.4646Y-6.25
X3.4646Y-6.2894
X3.4646Y-6.3287
X3.4646Y-6.3681
X3.47Y-1.33
X3.4941Y-5.9252
X3.5081Y-3.4467
X3.529Y-4.521
X3.532Y-4.746
X3.5571Y-3.4047
X3.573Y-4.519
X3.575Y-2.225
X3.577Y-4.746
X3.5906Y-5.1457
X3.591Y-5.189
X3.6024Y-5.2559
X3.6024Y-5.2953
X3.6083Y-2.5906
X3.6191Y-3.4077
X3.6291Y-3.6267
X3.63Y-5.45
X3.63Y-5.61
X3.635Y-2.1
X3.64Y-5.255
X3.64Y-5.295
X3.6417Y-6.5354
X3.6417Y-6.5748
X3.6417Y-6.6181
X3.66Y-1.61
X3.68Y-5.255
X3.681Y-5.297
X3.6811Y-5.5394
X3.75Y-1.685
X3.75Y-2.165
X3.77Y-2.305
X3.795Y-1.745
X3.84Y-3.105
X3.845Y-3.025
X3.8976Y-6.6772
X3.8976Y-6.7165
X3.937Y-6.6772
X3.937Y-6.7165
X3.9764Y-6.6772
X3.9764Y-6.7165
X3.9897Y-2.9642
X3.9925Y-3.3825
X4.0147Y-3.6772
X4.0157Y-5.8858
X4.0157Y-6.6772
X4.0157Y-6.7165
X4.0367Y-2.9642
X4.04Y-4.75
X4.05Y-2.83
X4.06Y-3.22
X4.07Y-1.815
X4.0747Y-3.6772
X4.09Y-2.635
X4.1183Y-2.9758
X4.12Y-3.16
X4.145Y-2.775
X4.1675Y-6.5789
X4.1722Y-2.8812
X4.24Y-2.46
X4.2451Y-2.9733
X4.252Y-6.3287
X4.255Y-4.82
X4.2557Y-3.7142
X4.28Y-1.815
X4.2995Y-3.1438
X4.315Y-3.18
X4.3227Y-3.7142
X4.3533Y-2.9683
X4.376Y-3.0866
X4.3897Y-3.5272
X4.3947Y-3.6022
X4.4193Y-3.0866
X4.4781Y-3.1212
X4.5Y-2.825
X4.515Y-2.26
X4.565Y-2.475
X4.64Y-3.065
X4.705Y-2.25
X4.82Y-4.7
X4.965Y-4.96
X5.03Y-4.41
X5.0394Y-1.1063
X5.1732Y-1.1063
X5.26Y-4.0
X5.3071Y-1.1102
X5.315Y-4.025
X5.32Y-4.81
X5.34Y-3.5757
X5.47Y-2.385
X5.4843Y-3.7618
X5.4843Y-3.8484
X5.485Y-5.815
X5.485Y-5.855
X5.485Y-5.895
X5.485Y-5.94
X5.485Y-5.985
X5.54Y-5.815
X5.54Y-5.94
X5.5571Y-4.7815
X5.5571Y-4.8602
X5.59Y-6.16
X5.61Y-4.195
X5.64Y-3.475
X5.665Y-1.985
X5.67Y-3.93
X5.705Y-4.65
X5.715Y-1.545
X5.76Y-5.9757
X5.76Y-6.0092
X5.76Y-6.0427
X5.76Y-6.0761
X5.76Y-6.1096
X5.76Y-6.1431
X5.76Y-6.1765
X5.76Y-6.21
X5.8131Y-5.9757
X5.8131Y-6.0092
X5.8131Y-6.0427
X5.8131Y-6.0761
X5.8131Y-6.1096
X5.8131Y-6.1431
X5.8131Y-6.1765
X5.8131Y-6.21
T3
X1.1654Y-1.3189
X1.193Y-1.2521
X1.193Y-1.3857
X1.2244Y-6.5551
X1.2521Y-6.4883
X1.2521Y-6.6219
X1.2598Y-1.2244
X1.2598Y-1.4134
X1.3189Y-6.4606
X1.3189Y-6.6496
X1.3267Y-1.2521
X1.3267Y-1.3857
X1.3543Y-1.3189
X1.3857Y-6.4883
X1.3857Y-6.6219
X1.4134Y-6.5551
X5.5748Y-6.5551
X5.5945Y-1.3189
X5.6025Y-6.4883
X5.6025Y-6.6219
X5.6222Y-1.2521
X5.6222Y-1.3857
X5.6693Y-6.4606
X5.6693Y-6.6496
X5.689Y-1.2244
X5.689Y-1.4134
X5.7361Y-6.4883
X5.7361Y-6.6219
X5.7558Y-1.2521
X5.7558Y-1.3857
X5.7638Y-6.5551
X5.7835Y-1.3189
T5
X1.1363Y-5.8919
X1.1363Y-6.325
X1.63Y-5.36
X1.73Y-5.36
X2.9331Y-1.122
X3.0331Y-1.122
X3.2047Y-1.1244
X3.2047Y-1.2244
X3.3047Y-1.1244
X3.3047Y-1.2244
X3.32Y-5.48
X3.32Y-5.58
X3.4047Y-1.1244
X3.4047Y-1.2244
X3.5047Y-1.1244
X3.5047Y-1.2244
X3.6047Y-1.1244
X3.6047Y-1.2244
X5.8018Y-3.7508
X5.8018Y-3.8508
X5.8018Y-3.9508
X5.8018Y-4.0508
X5.8018Y-4.1508
X5.8018Y-4.2508
X5.8018Y-4.3508
X5.8018Y-4.4508
X5.8018Y-4.5508
X5.8018Y-4.6508
X5.8018Y-4.7508
X5.8018Y-4.8508
X5.8743Y-1.7208
X5.8743Y-1.8208
X5.8743Y-1.9208
X5.8743Y-2.0208
X5.8768Y-2.2083
X5.8768Y-2.3083
X5.8768Y-2.4083
X5.8768Y-2.5083
X5.8818Y-2.7383
X5.8818Y-2.8383
X5.8818Y-2.9383
X5.8818Y-3.0383
X5.8918Y-3.2533
X5.8918Y-3.3533
X5.8918Y-3.4533
X5.8918Y-3.5533
X5.8954Y-5.0444
X5.8954Y-5.1444
X5.9018Y-3.7508
X5.9018Y-3.8508
X5.9018Y-3.9508
X5.9018Y-4.0508
X5.9018Y-4.1508
X5.9018Y-4.2508
X5.9018Y-4.3508
X5.9018Y-4.4508
X5.9018Y-4.5508
X5.9018Y-4.6508
X5.9018Y-4.7508
X5.9018Y-4.8508
T6
X1.5551Y-1.1378
X1.5551Y-1.315
X1.811Y-1.1378
X1.811Y-1.315
X4.7351Y-6.4918
X4.7351Y-6.669
X4.991Y-6.4918
X4.991Y-6.669
T7
X1.2362Y-2.0669
X1.2362Y-2.2669
X1.2362Y-2.8701
X1.2362Y-3.0701
X1.2362Y-3.6522
X1.2362Y-3.8522
X1.2402Y-4.4825
X1.2402Y-4.6825
X2.518Y-6.5157
X2.718Y-6.5157
X3.04Y-6.52
X3.24Y-6.52
X3.9024Y-1.2717
X4.1024Y-1.2717
X4.4142Y-1.2717
X4.6142Y-1.2717
X5.81Y-5.39
X5.81Y-5.59
T8
X1.53Y-6.01
X1.53Y-6.2069
T9
X3.4191Y-3.5977
X3.9764Y-5.2559
X3.9803Y-5.6142
T10
X1.2598Y-1.3189
X1.3189Y-6.5551
X5.6693Y-6.5551
X5.689Y-1.3189
T4
G00X1.0781Y-5.2589
M15
G01X1.0466Y-5.2589
M16
G05
G00X1.0781Y-5.5994
M15
G01X1.0466Y-5.5994
M16
G05
G00X1.2249Y-5.2589
M15
G01X1.1659Y-5.2589
M16
G05
G00X1.2249Y-5.5994
M15
G01X1.1659Y-5.5994
M16
G05
G00X5.7691Y-5.9226
M15
G01X5.8281Y-5.9226
M16
G05
G00X5.7691Y-6.2631
M15
G01X5.8281Y-6.2631
M16
G05
G00X5.9159Y-5.9226
M15
G01X5.9474Y-5.9226
M16
G05
G00X5.9159Y-6.2631
M15
G01X5.9474Y-6.2631
M16
G05
T0
M30
