%TF.GenerationSoftware,KiCad,Pcbnew,(5.1.10)-1*%
%TF.CreationDate,2021-09-21T14:48:15-05:00*%
%TF.ProjectId,SkidSteer_PCB,536b6964-5374-4656-9572-5f5043422e6b,rev?*%
%TF.SameCoordinates,Original*%
%TF.FileFunction,Legend,Bot*%
%TF.FilePolarity,Positive*%
%FSLAX46Y46*%
G04 Gerber Fmt 4.6, Leading zero omitted, Abs format (unit mm)*
G04 Created by KiCad (PCBNEW (5.1.10)-1) date 2021-09-21 14:48:15*
%MOMM*%
%LPD*%
G01*
G04 APERTURE LIST*
%ADD10C,0.300000*%
%ADD11C,0.600000*%
G04 APERTURE END LIST*
D10*
X123975714Y-156126571D02*
X123975714Y-154626571D01*
X123475714Y-155698000D01*
X122975714Y-154626571D01*
X122975714Y-156126571D01*
X121618571Y-156126571D02*
X121618571Y-155340857D01*
X121690000Y-155198000D01*
X121832857Y-155126571D01*
X122118571Y-155126571D01*
X122261428Y-155198000D01*
X121618571Y-156055142D02*
X121761428Y-156126571D01*
X122118571Y-156126571D01*
X122261428Y-156055142D01*
X122332857Y-155912285D01*
X122332857Y-155769428D01*
X122261428Y-155626571D01*
X122118571Y-155555142D01*
X121761428Y-155555142D01*
X121618571Y-155483714D01*
X120904285Y-156126571D02*
X120904285Y-155126571D01*
X120904285Y-155412285D02*
X120832857Y-155269428D01*
X120761428Y-155198000D01*
X120618571Y-155126571D01*
X120475714Y-155126571D01*
X120047142Y-156055142D02*
X119904285Y-156126571D01*
X119618571Y-156126571D01*
X119475714Y-156055142D01*
X119404285Y-155912285D01*
X119404285Y-155840857D01*
X119475714Y-155698000D01*
X119618571Y-155626571D01*
X119832857Y-155626571D01*
X119975714Y-155555142D01*
X120047142Y-155412285D01*
X120047142Y-155340857D01*
X119975714Y-155198000D01*
X119832857Y-155126571D01*
X119618571Y-155126571D01*
X119475714Y-155198000D01*
X116761428Y-156126571D02*
X117261428Y-155412285D01*
X117618571Y-156126571D02*
X117618571Y-154626571D01*
X117047142Y-154626571D01*
X116904285Y-154698000D01*
X116832857Y-154769428D01*
X116761428Y-154912285D01*
X116761428Y-155126571D01*
X116832857Y-155269428D01*
X116904285Y-155340857D01*
X117047142Y-155412285D01*
X117618571Y-155412285D01*
X115904285Y-156126571D02*
X116047142Y-156055142D01*
X116118571Y-155983714D01*
X116190000Y-155840857D01*
X116190000Y-155412285D01*
X116118571Y-155269428D01*
X116047142Y-155198000D01*
X115904285Y-155126571D01*
X115690000Y-155126571D01*
X115547142Y-155198000D01*
X115475714Y-155269428D01*
X115404285Y-155412285D01*
X115404285Y-155840857D01*
X115475714Y-155983714D01*
X115547142Y-156055142D01*
X115690000Y-156126571D01*
X115904285Y-156126571D01*
X114904285Y-155126571D02*
X114547142Y-156126571D01*
X114190000Y-155126571D01*
X113047142Y-156055142D02*
X113190000Y-156126571D01*
X113475714Y-156126571D01*
X113618571Y-156055142D01*
X113690000Y-155912285D01*
X113690000Y-155340857D01*
X113618571Y-155198000D01*
X113475714Y-155126571D01*
X113190000Y-155126571D01*
X113047142Y-155198000D01*
X112975714Y-155340857D01*
X112975714Y-155483714D01*
X113690000Y-155626571D01*
X112332857Y-156126571D02*
X112332857Y-155126571D01*
X112332857Y-155412285D02*
X112261428Y-155269428D01*
X112190000Y-155198000D01*
X112047142Y-155126571D01*
X111904285Y-155126571D01*
X110261428Y-156126571D02*
X110261428Y-155126571D01*
X110261428Y-154626571D02*
X110332857Y-154698000D01*
X110261428Y-154769428D01*
X110190000Y-154698000D01*
X110261428Y-154626571D01*
X110261428Y-154769428D01*
X108904285Y-156055142D02*
X109047142Y-156126571D01*
X109332857Y-156126571D01*
X109475714Y-156055142D01*
X109547142Y-155983714D01*
X109618571Y-155840857D01*
X109618571Y-155412285D01*
X109547142Y-155269428D01*
X109475714Y-155198000D01*
X109332857Y-155126571D01*
X109047142Y-155126571D01*
X108904285Y-155198000D01*
X108047142Y-156126571D02*
X108190000Y-156055142D01*
X108261428Y-155983714D01*
X108332857Y-155840857D01*
X108332857Y-155412285D01*
X108261428Y-155269428D01*
X108190000Y-155198000D01*
X108047142Y-155126571D01*
X107832857Y-155126571D01*
X107690000Y-155198000D01*
X107618571Y-155269428D01*
X107547142Y-155412285D01*
X107547142Y-155840857D01*
X107618571Y-155983714D01*
X107690000Y-156055142D01*
X107832857Y-156126571D01*
X108047142Y-156126571D01*
X106904285Y-155126571D02*
X106904285Y-156126571D01*
X106904285Y-155269428D02*
X106832857Y-155198000D01*
X106690000Y-155126571D01*
X106475714Y-155126571D01*
X106332857Y-155198000D01*
X106261428Y-155340857D01*
X106261428Y-156126571D01*
X104404285Y-156126571D02*
X104404285Y-155126571D01*
X104404285Y-155269428D02*
X104332857Y-155198000D01*
X104190000Y-155126571D01*
X103975714Y-155126571D01*
X103832857Y-155198000D01*
X103761428Y-155340857D01*
X103761428Y-156126571D01*
X103761428Y-155340857D02*
X103690000Y-155198000D01*
X103547142Y-155126571D01*
X103332857Y-155126571D01*
X103190000Y-155198000D01*
X103118571Y-155340857D01*
X103118571Y-156126571D01*
X101761428Y-156126571D02*
X101761428Y-155340857D01*
X101832857Y-155198000D01*
X101975714Y-155126571D01*
X102261428Y-155126571D01*
X102404285Y-155198000D01*
X101761428Y-156055142D02*
X101904285Y-156126571D01*
X102261428Y-156126571D01*
X102404285Y-156055142D01*
X102475714Y-155912285D01*
X102475714Y-155769428D01*
X102404285Y-155626571D01*
X102261428Y-155555142D01*
X101904285Y-155555142D01*
X101761428Y-155483714D01*
X100404285Y-156126571D02*
X100404285Y-154626571D01*
X100404285Y-156055142D02*
X100547142Y-156126571D01*
X100832857Y-156126571D01*
X100975714Y-156055142D01*
X101047142Y-155983714D01*
X101118571Y-155840857D01*
X101118571Y-155412285D01*
X101047142Y-155269428D01*
X100975714Y-155198000D01*
X100832857Y-155126571D01*
X100547142Y-155126571D01*
X100404285Y-155198000D01*
X99118571Y-156055142D02*
X99261428Y-156126571D01*
X99547142Y-156126571D01*
X99690000Y-156055142D01*
X99761428Y-155912285D01*
X99761428Y-155340857D01*
X99690000Y-155198000D01*
X99547142Y-155126571D01*
X99261428Y-155126571D01*
X99118571Y-155198000D01*
X99047142Y-155340857D01*
X99047142Y-155483714D01*
X99761428Y-155626571D01*
X97261428Y-156126571D02*
X97261428Y-154626571D01*
X97261428Y-155198000D02*
X97118571Y-155126571D01*
X96832857Y-155126571D01*
X96690000Y-155198000D01*
X96618571Y-155269428D01*
X96547142Y-155412285D01*
X96547142Y-155840857D01*
X96618571Y-155983714D01*
X96690000Y-156055142D01*
X96832857Y-156126571D01*
X97118571Y-156126571D01*
X97261428Y-156055142D01*
X96047142Y-155126571D02*
X95690000Y-156126571D01*
X95332857Y-155126571D02*
X95690000Y-156126571D01*
X95832857Y-156483714D01*
X95904285Y-156555142D01*
X96047142Y-156626571D01*
X93618571Y-155340857D02*
X93118571Y-155340857D01*
X92904285Y-156126571D02*
X93618571Y-156126571D01*
X93618571Y-154626571D01*
X92904285Y-154626571D01*
X91618571Y-155126571D02*
X91618571Y-156126571D01*
X92261428Y-155126571D02*
X92261428Y-155912285D01*
X92190000Y-156055142D01*
X92047142Y-156126571D01*
X91832857Y-156126571D01*
X91690000Y-156055142D01*
X91618571Y-155983714D01*
X90261428Y-156055142D02*
X90404285Y-156126571D01*
X90690000Y-156126571D01*
X90832857Y-156055142D01*
X90904285Y-155983714D01*
X90975714Y-155840857D01*
X90975714Y-155412285D01*
X90904285Y-155269428D01*
X90832857Y-155198000D01*
X90690000Y-155126571D01*
X90404285Y-155126571D01*
X90261428Y-155198000D01*
X88975714Y-156126571D02*
X88975714Y-155340857D01*
X89047142Y-155198000D01*
X89190000Y-155126571D01*
X89475714Y-155126571D01*
X89618571Y-155198000D01*
X88975714Y-156055142D02*
X89118571Y-156126571D01*
X89475714Y-156126571D01*
X89618571Y-156055142D01*
X89690000Y-155912285D01*
X89690000Y-155769428D01*
X89618571Y-155626571D01*
X89475714Y-155555142D01*
X89118571Y-155555142D01*
X88975714Y-155483714D01*
X88047142Y-156126571D02*
X88190000Y-156055142D01*
X88261428Y-155912285D01*
X88261428Y-154626571D01*
X87618571Y-155126571D02*
X87261428Y-156126571D01*
X86904285Y-155126571D02*
X87261428Y-156126571D01*
X87404285Y-156483714D01*
X87475714Y-156555142D01*
X87618571Y-156626571D01*
X86332857Y-155126571D02*
X86332857Y-156626571D01*
X86332857Y-155198000D02*
X86190000Y-155126571D01*
X85904285Y-155126571D01*
X85761428Y-155198000D01*
X85690000Y-155269428D01*
X85618571Y-155412285D01*
X85618571Y-155840857D01*
X85690000Y-155983714D01*
X85761428Y-156055142D01*
X85904285Y-156126571D01*
X86190000Y-156126571D01*
X86332857Y-156055142D01*
X84047142Y-155126571D02*
X83475714Y-155126571D01*
X83832857Y-156126571D02*
X83832857Y-154840857D01*
X83761428Y-154698000D01*
X83618571Y-154626571D01*
X83475714Y-154626571D01*
X82975714Y-156126571D02*
X82975714Y-155126571D01*
X82975714Y-155412285D02*
X82904285Y-155269428D01*
X82832857Y-155198000D01*
X82690000Y-155126571D01*
X82547142Y-155126571D01*
X81832857Y-156126571D02*
X81975714Y-156055142D01*
X82047142Y-155983714D01*
X82118571Y-155840857D01*
X82118571Y-155412285D01*
X82047142Y-155269428D01*
X81975714Y-155198000D01*
X81832857Y-155126571D01*
X81618571Y-155126571D01*
X81475714Y-155198000D01*
X81404285Y-155269428D01*
X81332857Y-155412285D01*
X81332857Y-155840857D01*
X81404285Y-155983714D01*
X81475714Y-156055142D01*
X81618571Y-156126571D01*
X81832857Y-156126571D01*
X80690000Y-156126571D02*
X80690000Y-155126571D01*
X80690000Y-155269428D02*
X80618571Y-155198000D01*
X80475714Y-155126571D01*
X80261428Y-155126571D01*
X80118571Y-155198000D01*
X80047142Y-155340857D01*
X80047142Y-156126571D01*
X80047142Y-155340857D02*
X79975714Y-155198000D01*
X79832857Y-155126571D01*
X79618571Y-155126571D01*
X79475714Y-155198000D01*
X79404285Y-155340857D01*
X79404285Y-156126571D01*
X77690000Y-155126571D02*
X77404285Y-156126571D01*
X77118571Y-155412285D01*
X76832857Y-156126571D01*
X76547142Y-155126571D01*
X76118571Y-155126571D02*
X75832857Y-156126571D01*
X75547142Y-155412285D01*
X75261428Y-156126571D01*
X74975714Y-155126571D01*
X74547142Y-155126571D02*
X74261428Y-156126571D01*
X73975714Y-155412285D01*
X73690000Y-156126571D01*
X73404285Y-155126571D01*
X72832857Y-155983714D02*
X72761428Y-156055142D01*
X72832857Y-156126571D01*
X72904285Y-156055142D01*
X72832857Y-155983714D01*
X72832857Y-156126571D01*
X72332857Y-155126571D02*
X71761428Y-155126571D01*
X72118571Y-156126571D02*
X72118571Y-154840857D01*
X72047142Y-154698000D01*
X71904285Y-154626571D01*
X71761428Y-154626571D01*
X71047142Y-156126571D02*
X71190000Y-156055142D01*
X71261428Y-155912285D01*
X71261428Y-154626571D01*
X69832857Y-156126571D02*
X69832857Y-155340857D01*
X69904285Y-155198000D01*
X70047142Y-155126571D01*
X70332857Y-155126571D01*
X70475714Y-155198000D01*
X69832857Y-156055142D02*
X69975714Y-156126571D01*
X70332857Y-156126571D01*
X70475714Y-156055142D01*
X70547142Y-155912285D01*
X70547142Y-155769428D01*
X70475714Y-155626571D01*
X70332857Y-155555142D01*
X69975714Y-155555142D01*
X69832857Y-155483714D01*
X69332857Y-155126571D02*
X68761428Y-155126571D01*
X69118571Y-154626571D02*
X69118571Y-155912285D01*
X69047142Y-156055142D01*
X68904285Y-156126571D01*
X68761428Y-156126571D01*
X68261428Y-156126571D02*
X68261428Y-155126571D01*
X68261428Y-154626571D02*
X68332857Y-154698000D01*
X68261428Y-154769428D01*
X68190000Y-154698000D01*
X68261428Y-154626571D01*
X68261428Y-154769428D01*
X66904285Y-156055142D02*
X67047142Y-156126571D01*
X67332857Y-156126571D01*
X67475714Y-156055142D01*
X67547142Y-155983714D01*
X67618571Y-155840857D01*
X67618571Y-155412285D01*
X67547142Y-155269428D01*
X67475714Y-155198000D01*
X67332857Y-155126571D01*
X67047142Y-155126571D01*
X66904285Y-155198000D01*
X66047142Y-156126571D02*
X66190000Y-156055142D01*
X66261428Y-155983714D01*
X66332857Y-155840857D01*
X66332857Y-155412285D01*
X66261428Y-155269428D01*
X66190000Y-155198000D01*
X66047142Y-155126571D01*
X65832857Y-155126571D01*
X65690000Y-155198000D01*
X65618571Y-155269428D01*
X65547142Y-155412285D01*
X65547142Y-155840857D01*
X65618571Y-155983714D01*
X65690000Y-156055142D01*
X65832857Y-156126571D01*
X66047142Y-156126571D01*
X64904285Y-155126571D02*
X64904285Y-156126571D01*
X64904285Y-155269428D02*
X64832857Y-155198000D01*
X64690000Y-155126571D01*
X64475714Y-155126571D01*
X64332857Y-155198000D01*
X64261428Y-155340857D01*
X64261428Y-156126571D01*
X63547142Y-155983714D02*
X63475714Y-156055142D01*
X63547142Y-156126571D01*
X63618571Y-156055142D01*
X63547142Y-155983714D01*
X63547142Y-156126571D01*
X62190000Y-156055142D02*
X62332857Y-156126571D01*
X62618571Y-156126571D01*
X62761428Y-156055142D01*
X62832857Y-155983714D01*
X62904285Y-155840857D01*
X62904285Y-155412285D01*
X62832857Y-155269428D01*
X62761428Y-155198000D01*
X62618571Y-155126571D01*
X62332857Y-155126571D01*
X62190000Y-155198000D01*
X61332857Y-156126571D02*
X61475714Y-156055142D01*
X61547142Y-155983714D01*
X61618571Y-155840857D01*
X61618571Y-155412285D01*
X61547142Y-155269428D01*
X61475714Y-155198000D01*
X61332857Y-155126571D01*
X61118571Y-155126571D01*
X60975714Y-155198000D01*
X60904285Y-155269428D01*
X60832857Y-155412285D01*
X60832857Y-155840857D01*
X60904285Y-155983714D01*
X60975714Y-156055142D01*
X61118571Y-156126571D01*
X61332857Y-156126571D01*
X60190000Y-156126571D02*
X60190000Y-155126571D01*
X60190000Y-155269428D02*
X60118571Y-155198000D01*
X59975714Y-155126571D01*
X59761428Y-155126571D01*
X59618571Y-155198000D01*
X59547142Y-155340857D01*
X59547142Y-156126571D01*
X59547142Y-155340857D02*
X59475714Y-155198000D01*
X59332857Y-155126571D01*
X59118571Y-155126571D01*
X58975714Y-155198000D01*
X58904285Y-155340857D01*
X58904285Y-156126571D01*
D11*
X125497428Y-112355142D02*
X125497428Y-109355142D01*
X123783142Y-112355142D02*
X125068857Y-110640857D01*
X123783142Y-109355142D02*
X125497428Y-111069428D01*
X122640285Y-112212285D02*
X122211714Y-112355142D01*
X121497428Y-112355142D01*
X121211714Y-112212285D01*
X121068857Y-112069428D01*
X120926000Y-111783714D01*
X120926000Y-111498000D01*
X121068857Y-111212285D01*
X121211714Y-111069428D01*
X121497428Y-110926571D01*
X122068857Y-110783714D01*
X122354571Y-110640857D01*
X122497428Y-110498000D01*
X122640285Y-110212285D01*
X122640285Y-109926571D01*
X122497428Y-109640857D01*
X122354571Y-109498000D01*
X122068857Y-109355142D01*
X121354571Y-109355142D01*
X120926000Y-109498000D01*
X119640285Y-109355142D02*
X119640285Y-111783714D01*
X119497428Y-112069428D01*
X119354571Y-112212285D01*
X119068857Y-112355142D01*
X118497428Y-112355142D01*
X118211714Y-112212285D01*
X118068857Y-112069428D01*
X117926000Y-111783714D01*
X117926000Y-109355142D01*
X114211714Y-112355142D02*
X114211714Y-109355142D01*
X113068857Y-109355142D01*
X112783142Y-109498000D01*
X112640285Y-109640857D01*
X112497428Y-109926571D01*
X112497428Y-110355142D01*
X112640285Y-110640857D01*
X112783142Y-110783714D01*
X113068857Y-110926571D01*
X114211714Y-110926571D01*
X111211714Y-112355142D02*
X111211714Y-110355142D01*
X111211714Y-110926571D02*
X111068857Y-110640857D01*
X110926000Y-110498000D01*
X110640285Y-110355142D01*
X110354571Y-110355142D01*
X108211714Y-112212285D02*
X108497428Y-112355142D01*
X109068857Y-112355142D01*
X109354571Y-112212285D01*
X109497428Y-111926571D01*
X109497428Y-110783714D01*
X109354571Y-110498000D01*
X109068857Y-110355142D01*
X108497428Y-110355142D01*
X108211714Y-110498000D01*
X108068857Y-110783714D01*
X108068857Y-111069428D01*
X109497428Y-111355142D01*
X105497428Y-112212285D02*
X105783142Y-112355142D01*
X106354571Y-112355142D01*
X106640285Y-112212285D01*
X106783142Y-112069428D01*
X106926000Y-111783714D01*
X106926000Y-110926571D01*
X106783142Y-110640857D01*
X106640285Y-110498000D01*
X106354571Y-110355142D01*
X105783142Y-110355142D01*
X105497428Y-110498000D01*
X104211714Y-112355142D02*
X104211714Y-110355142D01*
X104211714Y-109355142D02*
X104354571Y-109498000D01*
X104211714Y-109640857D01*
X104068857Y-109498000D01*
X104211714Y-109355142D01*
X104211714Y-109640857D01*
X102926000Y-112212285D02*
X102640285Y-112355142D01*
X102068857Y-112355142D01*
X101783142Y-112212285D01*
X101640285Y-111926571D01*
X101640285Y-111783714D01*
X101783142Y-111498000D01*
X102068857Y-111355142D01*
X102497428Y-111355142D01*
X102783142Y-111212285D01*
X102926000Y-110926571D01*
X102926000Y-110783714D01*
X102783142Y-110498000D01*
X102497428Y-110355142D01*
X102068857Y-110355142D01*
X101783142Y-110498000D01*
X100354571Y-112355142D02*
X100354571Y-110355142D01*
X100354571Y-109355142D02*
X100497428Y-109498000D01*
X100354571Y-109640857D01*
X100211714Y-109498000D01*
X100354571Y-109355142D01*
X100354571Y-109640857D01*
X98497428Y-112355142D02*
X98783142Y-112212285D01*
X98926000Y-112069428D01*
X99068857Y-111783714D01*
X99068857Y-110926571D01*
X98926000Y-110640857D01*
X98783142Y-110498000D01*
X98497428Y-110355142D01*
X98068857Y-110355142D01*
X97783142Y-110498000D01*
X97640285Y-110640857D01*
X97497428Y-110926571D01*
X97497428Y-111783714D01*
X97640285Y-112069428D01*
X97783142Y-112212285D01*
X98068857Y-112355142D01*
X98497428Y-112355142D01*
X96211714Y-110355142D02*
X96211714Y-112355142D01*
X96211714Y-110640857D02*
X96068857Y-110498000D01*
X95783142Y-110355142D01*
X95354571Y-110355142D01*
X95068857Y-110498000D01*
X94926000Y-110783714D01*
X94926000Y-112355142D01*
X91354571Y-111498000D02*
X89926000Y-111498000D01*
X91640285Y-112355142D02*
X90640285Y-109355142D01*
X89640285Y-112355142D01*
X87354571Y-110355142D02*
X87354571Y-112783714D01*
X87497428Y-113069428D01*
X87640285Y-113212285D01*
X87926000Y-113355142D01*
X88354571Y-113355142D01*
X88640285Y-113212285D01*
X87354571Y-112212285D02*
X87640285Y-112355142D01*
X88211714Y-112355142D01*
X88497428Y-112212285D01*
X88640285Y-112069428D01*
X88783142Y-111783714D01*
X88783142Y-110926571D01*
X88640285Y-110640857D01*
X88497428Y-110498000D01*
X88211714Y-110355142D01*
X87640285Y-110355142D01*
X87354571Y-110498000D01*
D10*
X129110285Y-137071571D02*
X129610285Y-136357285D01*
X129967428Y-137071571D02*
X129967428Y-135571571D01*
X129396000Y-135571571D01*
X129253142Y-135643000D01*
X129181714Y-135714428D01*
X129110285Y-135857285D01*
X129110285Y-136071571D01*
X129181714Y-136214428D01*
X129253142Y-136285857D01*
X129396000Y-136357285D01*
X129967428Y-136357285D01*
X128253142Y-137071571D02*
X128396000Y-137000142D01*
X128467428Y-136928714D01*
X128538857Y-136785857D01*
X128538857Y-136357285D01*
X128467428Y-136214428D01*
X128396000Y-136143000D01*
X128253142Y-136071571D01*
X128038857Y-136071571D01*
X127896000Y-136143000D01*
X127824571Y-136214428D01*
X127753142Y-136357285D01*
X127753142Y-136785857D01*
X127824571Y-136928714D01*
X127896000Y-137000142D01*
X128038857Y-137071571D01*
X128253142Y-137071571D01*
X127253142Y-136071571D02*
X126896000Y-137071571D01*
X126538857Y-136071571D01*
X125396000Y-137000142D02*
X125538857Y-137071571D01*
X125824571Y-137071571D01*
X125967428Y-137000142D01*
X126038857Y-136857285D01*
X126038857Y-136285857D01*
X125967428Y-136143000D01*
X125824571Y-136071571D01*
X125538857Y-136071571D01*
X125396000Y-136143000D01*
X125324571Y-136285857D01*
X125324571Y-136428714D01*
X126038857Y-136571571D01*
X124681714Y-137071571D02*
X124681714Y-136071571D01*
X124681714Y-136357285D02*
X124610285Y-136214428D01*
X124538857Y-136143000D01*
X124396000Y-136071571D01*
X124253142Y-136071571D01*
X122110285Y-136285857D02*
X121896000Y-136357285D01*
X121824571Y-136428714D01*
X121753142Y-136571571D01*
X121753142Y-136785857D01*
X121824571Y-136928714D01*
X121896000Y-137000142D01*
X122038857Y-137071571D01*
X122610285Y-137071571D01*
X122610285Y-135571571D01*
X122110285Y-135571571D01*
X121967428Y-135643000D01*
X121896000Y-135714428D01*
X121824571Y-135857285D01*
X121824571Y-136000142D01*
X121896000Y-136143000D01*
X121967428Y-136214428D01*
X122110285Y-136285857D01*
X122610285Y-136285857D01*
X120896000Y-137071571D02*
X121038857Y-137000142D01*
X121110285Y-136928714D01*
X121181714Y-136785857D01*
X121181714Y-136357285D01*
X121110285Y-136214428D01*
X121038857Y-136143000D01*
X120896000Y-136071571D01*
X120681714Y-136071571D01*
X120538857Y-136143000D01*
X120467428Y-136214428D01*
X120396000Y-136357285D01*
X120396000Y-136785857D01*
X120467428Y-136928714D01*
X120538857Y-137000142D01*
X120681714Y-137071571D01*
X120896000Y-137071571D01*
X119110285Y-137071571D02*
X119110285Y-136285857D01*
X119181714Y-136143000D01*
X119324571Y-136071571D01*
X119610285Y-136071571D01*
X119753142Y-136143000D01*
X119110285Y-137000142D02*
X119253142Y-137071571D01*
X119610285Y-137071571D01*
X119753142Y-137000142D01*
X119824571Y-136857285D01*
X119824571Y-136714428D01*
X119753142Y-136571571D01*
X119610285Y-136500142D01*
X119253142Y-136500142D01*
X119110285Y-136428714D01*
X118396000Y-137071571D02*
X118396000Y-136071571D01*
X118396000Y-136357285D02*
X118324571Y-136214428D01*
X118253142Y-136143000D01*
X118110285Y-136071571D01*
X117967428Y-136071571D01*
X116824571Y-137071571D02*
X116824571Y-135571571D01*
X116824571Y-137000142D02*
X116967428Y-137071571D01*
X117253142Y-137071571D01*
X117396000Y-137000142D01*
X117467428Y-136928714D01*
X117538857Y-136785857D01*
X117538857Y-136357285D01*
X117467428Y-136214428D01*
X117396000Y-136143000D01*
X117253142Y-136071571D01*
X116967428Y-136071571D01*
X116824571Y-136143000D01*
X115181714Y-135571571D02*
X114681714Y-137071571D01*
X114181714Y-135571571D01*
X112896000Y-137071571D02*
X113753142Y-137071571D01*
X113324571Y-137071571D02*
X113324571Y-135571571D01*
X113467428Y-135785857D01*
X113610285Y-135928714D01*
X113753142Y-136000142D01*
X112253142Y-136928714D02*
X112181714Y-137000142D01*
X112253142Y-137071571D01*
X112324571Y-137000142D01*
X112253142Y-136928714D01*
X112253142Y-137071571D01*
X111253142Y-135571571D02*
X111110285Y-135571571D01*
X110967428Y-135643000D01*
X110896000Y-135714428D01*
X110824571Y-135857285D01*
X110753142Y-136143000D01*
X110753142Y-136500142D01*
X110824571Y-136785857D01*
X110896000Y-136928714D01*
X110967428Y-137000142D01*
X111110285Y-137071571D01*
X111253142Y-137071571D01*
X111396000Y-137000142D01*
X111467428Y-136928714D01*
X111538857Y-136785857D01*
X111610285Y-136500142D01*
X111610285Y-136143000D01*
X111538857Y-135857285D01*
X111467428Y-135714428D01*
X111396000Y-135643000D01*
X111253142Y-135571571D01*
X139396000Y-139621571D02*
X139396000Y-138121571D01*
X139038857Y-138121571D01*
X138824571Y-138193000D01*
X138681714Y-138335857D01*
X138610285Y-138478714D01*
X138538857Y-138764428D01*
X138538857Y-138978714D01*
X138610285Y-139264428D01*
X138681714Y-139407285D01*
X138824571Y-139550142D01*
X139038857Y-139621571D01*
X139396000Y-139621571D01*
X137324571Y-139550142D02*
X137467428Y-139621571D01*
X137753142Y-139621571D01*
X137896000Y-139550142D01*
X137967428Y-139407285D01*
X137967428Y-138835857D01*
X137896000Y-138693000D01*
X137753142Y-138621571D01*
X137467428Y-138621571D01*
X137324571Y-138693000D01*
X137253142Y-138835857D01*
X137253142Y-138978714D01*
X137967428Y-139121571D01*
X136681714Y-139550142D02*
X136538857Y-139621571D01*
X136253142Y-139621571D01*
X136110285Y-139550142D01*
X136038857Y-139407285D01*
X136038857Y-139335857D01*
X136110285Y-139193000D01*
X136253142Y-139121571D01*
X136467428Y-139121571D01*
X136610285Y-139050142D01*
X136681714Y-138907285D01*
X136681714Y-138835857D01*
X136610285Y-138693000D01*
X136467428Y-138621571D01*
X136253142Y-138621571D01*
X136110285Y-138693000D01*
X135396000Y-139621571D02*
X135396000Y-138621571D01*
X135396000Y-138121571D02*
X135467428Y-138193000D01*
X135396000Y-138264428D01*
X135324571Y-138193000D01*
X135396000Y-138121571D01*
X135396000Y-138264428D01*
X134038857Y-138621571D02*
X134038857Y-139835857D01*
X134110285Y-139978714D01*
X134181714Y-140050142D01*
X134324571Y-140121571D01*
X134538857Y-140121571D01*
X134681714Y-140050142D01*
X134038857Y-139550142D02*
X134181714Y-139621571D01*
X134467428Y-139621571D01*
X134610285Y-139550142D01*
X134681714Y-139478714D01*
X134753142Y-139335857D01*
X134753142Y-138907285D01*
X134681714Y-138764428D01*
X134610285Y-138693000D01*
X134467428Y-138621571D01*
X134181714Y-138621571D01*
X134038857Y-138693000D01*
X133324571Y-138621571D02*
X133324571Y-139621571D01*
X133324571Y-138764428D02*
X133253142Y-138693000D01*
X133110285Y-138621571D01*
X132896000Y-138621571D01*
X132753142Y-138693000D01*
X132681714Y-138835857D01*
X132681714Y-139621571D01*
X131967428Y-139478714D02*
X131896000Y-139550142D01*
X131967428Y-139621571D01*
X132038857Y-139550142D01*
X131967428Y-139478714D01*
X131967428Y-139621571D01*
X131967428Y-138693000D02*
X131896000Y-138764428D01*
X131967428Y-138835857D01*
X132038857Y-138764428D01*
X131967428Y-138693000D01*
X131967428Y-138835857D01*
X129681714Y-138121571D02*
X129681714Y-139193000D01*
X129753142Y-139407285D01*
X129896000Y-139550142D01*
X130110285Y-139621571D01*
X130253142Y-139621571D01*
X128753142Y-139621571D02*
X128896000Y-139550142D01*
X128967428Y-139478714D01*
X129038857Y-139335857D01*
X129038857Y-138907285D01*
X128967428Y-138764428D01*
X128896000Y-138693000D01*
X128753142Y-138621571D01*
X128538857Y-138621571D01*
X128396000Y-138693000D01*
X128324571Y-138764428D01*
X128253142Y-138907285D01*
X128253142Y-139335857D01*
X128324571Y-139478714D01*
X128396000Y-139550142D01*
X128538857Y-139621571D01*
X128753142Y-139621571D01*
X127681714Y-139550142D02*
X127538857Y-139621571D01*
X127253142Y-139621571D01*
X127110285Y-139550142D01*
X127038857Y-139407285D01*
X127038857Y-139335857D01*
X127110285Y-139193000D01*
X127253142Y-139121571D01*
X127467428Y-139121571D01*
X127610285Y-139050142D01*
X127681714Y-138907285D01*
X127681714Y-138835857D01*
X127610285Y-138693000D01*
X127467428Y-138621571D01*
X127253142Y-138621571D01*
X127110285Y-138693000D01*
X125824571Y-139550142D02*
X125967428Y-139621571D01*
X126253142Y-139621571D01*
X126396000Y-139550142D01*
X126467428Y-139407285D01*
X126467428Y-138835857D01*
X126396000Y-138693000D01*
X126253142Y-138621571D01*
X125967428Y-138621571D01*
X125824571Y-138693000D01*
X125753142Y-138835857D01*
X125753142Y-138978714D01*
X126467428Y-139121571D01*
X123967428Y-139621571D02*
X123967428Y-138121571D01*
X123467428Y-139193000D01*
X122967428Y-138121571D01*
X122967428Y-139621571D01*
X121610285Y-139621571D02*
X121610285Y-138835857D01*
X121681714Y-138693000D01*
X121824571Y-138621571D01*
X122110285Y-138621571D01*
X122253142Y-138693000D01*
X121610285Y-139550142D02*
X121753142Y-139621571D01*
X122110285Y-139621571D01*
X122253142Y-139550142D01*
X122324571Y-139407285D01*
X122324571Y-139264428D01*
X122253142Y-139121571D01*
X122110285Y-139050142D01*
X121753142Y-139050142D01*
X121610285Y-138978714D01*
X121110285Y-138621571D02*
X120538857Y-138621571D01*
X120896000Y-138121571D02*
X120896000Y-139407285D01*
X120824571Y-139550142D01*
X120681714Y-139621571D01*
X120538857Y-139621571D01*
X119467428Y-139550142D02*
X119610285Y-139621571D01*
X119896000Y-139621571D01*
X120038857Y-139550142D01*
X120110285Y-139407285D01*
X120110285Y-138835857D01*
X120038857Y-138693000D01*
X119896000Y-138621571D01*
X119610285Y-138621571D01*
X119467428Y-138693000D01*
X119396000Y-138835857D01*
X119396000Y-138978714D01*
X120110285Y-139121571D01*
X118110285Y-138621571D02*
X118110285Y-139621571D01*
X118753142Y-138621571D02*
X118753142Y-139407285D01*
X118681714Y-139550142D01*
X118538857Y-139621571D01*
X118324571Y-139621571D01*
X118181714Y-139550142D01*
X118110285Y-139478714D01*
X117467428Y-139550142D02*
X117324571Y-139621571D01*
X117038857Y-139621571D01*
X116896000Y-139550142D01*
X116824571Y-139407285D01*
X116824571Y-139335857D01*
X116896000Y-139193000D01*
X117038857Y-139121571D01*
X117253142Y-139121571D01*
X117396000Y-139050142D01*
X117467428Y-138907285D01*
X117467428Y-138835857D01*
X117396000Y-138693000D01*
X117253142Y-138621571D01*
X117038857Y-138621571D01*
X116896000Y-138693000D01*
X114181714Y-139621571D02*
X114681714Y-138907285D01*
X115038857Y-139621571D02*
X115038857Y-138121571D01*
X114467428Y-138121571D01*
X114324571Y-138193000D01*
X114253142Y-138264428D01*
X114181714Y-138407285D01*
X114181714Y-138621571D01*
X114253142Y-138764428D01*
X114324571Y-138835857D01*
X114467428Y-138907285D01*
X115038857Y-138907285D01*
X112896000Y-139621571D02*
X112896000Y-138835857D01*
X112967428Y-138693000D01*
X113110285Y-138621571D01*
X113396000Y-138621571D01*
X113538857Y-138693000D01*
X112896000Y-139550142D02*
X113038857Y-139621571D01*
X113396000Y-139621571D01*
X113538857Y-139550142D01*
X113610285Y-139407285D01*
X113610285Y-139264428D01*
X113538857Y-139121571D01*
X113396000Y-139050142D01*
X113038857Y-139050142D01*
X112896000Y-138978714D01*
X112181714Y-139621571D02*
X112181714Y-138621571D01*
X112181714Y-138121571D02*
X112253142Y-138193000D01*
X112181714Y-138264428D01*
X112110285Y-138193000D01*
X112181714Y-138121571D01*
X112181714Y-138264428D01*
X111681714Y-138621571D02*
X111110285Y-138621571D01*
X111467428Y-138121571D02*
X111467428Y-139407285D01*
X111396000Y-139550142D01*
X111253142Y-139621571D01*
X111110285Y-139621571D01*
X110753142Y-138621571D02*
X109967428Y-138621571D01*
X110753142Y-139621571D01*
X109967428Y-139621571D01*
X108253142Y-139621571D02*
X108253142Y-138121571D01*
X107681714Y-138121571D01*
X107538857Y-138193000D01*
X107467428Y-138264428D01*
X107396000Y-138407285D01*
X107396000Y-138621571D01*
X107467428Y-138764428D01*
X107538857Y-138835857D01*
X107681714Y-138907285D01*
X108253142Y-138907285D01*
X106181714Y-139550142D02*
X106324571Y-139621571D01*
X106610285Y-139621571D01*
X106753142Y-139550142D01*
X106824571Y-139407285D01*
X106824571Y-138835857D01*
X106753142Y-138693000D01*
X106610285Y-138621571D01*
X106324571Y-138621571D01*
X106181714Y-138693000D01*
X106110285Y-138835857D01*
X106110285Y-138978714D01*
X106824571Y-139121571D01*
X105467428Y-139621571D02*
X105467428Y-138621571D01*
X105467428Y-138907285D02*
X105396000Y-138764428D01*
X105324571Y-138693000D01*
X105181714Y-138621571D01*
X105038857Y-138621571D01*
X104610285Y-139550142D02*
X104467428Y-139621571D01*
X104181714Y-139621571D01*
X104038857Y-139550142D01*
X103967428Y-139407285D01*
X103967428Y-139335857D01*
X104038857Y-139193000D01*
X104181714Y-139121571D01*
X104396000Y-139121571D01*
X104538857Y-139050142D01*
X104610285Y-138907285D01*
X104610285Y-138835857D01*
X104538857Y-138693000D01*
X104396000Y-138621571D01*
X104181714Y-138621571D01*
X104038857Y-138693000D01*
X102681714Y-139550142D02*
X102824571Y-139621571D01*
X103110285Y-139621571D01*
X103253142Y-139550142D01*
X103324571Y-139478714D01*
X103396000Y-139335857D01*
X103396000Y-138907285D01*
X103324571Y-138764428D01*
X103253142Y-138693000D01*
X103110285Y-138621571D01*
X102824571Y-138621571D01*
X102681714Y-138693000D01*
X102038857Y-139621571D02*
X102038857Y-138121571D01*
X101396000Y-139621571D02*
X101396000Y-138835857D01*
X101467428Y-138693000D01*
X101610285Y-138621571D01*
X101824571Y-138621571D01*
X101967428Y-138693000D01*
X102038857Y-138764428D01*
M02*
