%TF.GenerationSoftware,KiCad,Pcbnew,(5.1.10)-1*%
%TF.CreationDate,2021-09-21T14:48:15-05:00*%
%TF.ProjectId,SkidSteer_PCB,536b6964-5374-4656-9572-5f5043422e6b,rev?*%
%TF.SameCoordinates,Original*%
%TF.FileFunction,Soldermask,Bot*%
%TF.FilePolarity,Negative*%
%FSLAX46Y46*%
G04 Gerber Fmt 4.6, Leading zero omitted, Abs format (unit mm)*
G04 Created by KiCad (PCBNEW (5.1.10)-1) date 2021-09-21 14:48:15*
%MOMM*%
%LPD*%
G01*
G04 APERTURE LIST*
%ADD10R,1.700000X1.700000*%
%ADD11O,1.700000X1.700000*%
%ADD12C,3.000000*%
%ADD13C,3.500000*%
%ADD14R,3.500000X3.500000*%
%ADD15C,1.400000*%
%ADD16R,2.600000X2.600000*%
%ADD17C,2.600000*%
%ADD18C,6.400000*%
%ADD19C,0.800000*%
%ADD20O,1.700000X0.900000*%
%ADD21O,2.400000X0.900000*%
%ADD22C,0.700000*%
%ADD23C,2.000000*%
G04 APERTURE END LIST*
D10*
%TO.C,J4*%
X149905720Y-123210320D03*
D11*
X147365720Y-123210320D03*
X149905720Y-120670320D03*
X147365720Y-120670320D03*
X149905720Y-118130320D03*
X147365720Y-118130320D03*
X149905720Y-115590320D03*
X147365720Y-115590320D03*
X149905720Y-113050320D03*
X147365720Y-113050320D03*
X149905720Y-110510320D03*
X147365720Y-110510320D03*
X149905720Y-107970320D03*
X147365720Y-107970320D03*
X149905720Y-105430320D03*
X147365720Y-105430320D03*
X149905720Y-102890320D03*
X147365720Y-102890320D03*
X149905720Y-100350320D03*
X147365720Y-100350320D03*
X149905720Y-97810320D03*
X147365720Y-97810320D03*
X149905720Y-95270320D03*
X147365720Y-95270320D03*
%TD*%
D10*
%TO.C,J16*%
X149651720Y-82633820D03*
D11*
X149651720Y-85173820D03*
X149651720Y-87713820D03*
X149651720Y-90253820D03*
%TD*%
%TO.C,J15*%
X149397720Y-77172820D03*
X149397720Y-74632820D03*
X149397720Y-72092820D03*
D10*
X149397720Y-69552820D03*
%TD*%
D11*
%TO.C,J14*%
X149270720Y-63710820D03*
X149270720Y-61170820D03*
X149270720Y-58630820D03*
D10*
X149270720Y-56090820D03*
%TD*%
D12*
%TO.C,TP5*%
X86844000Y-91382000D03*
%TD*%
D10*
%TO.C,J12*%
X81400000Y-31100000D03*
D11*
X81400000Y-28560000D03*
X83940000Y-31100000D03*
X83940000Y-28560000D03*
X86480000Y-31100000D03*
X86480000Y-28560000D03*
X89020000Y-31100000D03*
X89020000Y-28560000D03*
X91560000Y-31100000D03*
X91560000Y-28560000D03*
%TD*%
D12*
%TO.C,TP4*%
X101000000Y-133500000D03*
%TD*%
%TO.C,TP2*%
X101100000Y-142600000D03*
%TD*%
D13*
%TO.C,J1*%
X38862000Y-157654000D03*
D14*
X38862000Y-152654000D03*
D15*
X28862000Y-160654000D03*
X28862000Y-149654000D03*
%TD*%
D11*
%TO.C,J3*%
X77040000Y-28500000D03*
D10*
X74500000Y-28500000D03*
%TD*%
D11*
%TO.C,J21*%
X149743160Y-128127760D03*
D10*
X149743160Y-130667760D03*
%TD*%
D16*
%TO.C,J5*%
X31400000Y-52500000D03*
D17*
X31400000Y-57580000D03*
%TD*%
%TO.C,J6*%
X31400000Y-77980000D03*
D16*
X31400000Y-72900000D03*
%TD*%
%TO.C,J7*%
X31400000Y-92766280D03*
D17*
X31400000Y-97846280D03*
%TD*%
%TO.C,J8*%
X31500000Y-118935480D03*
D16*
X31500000Y-113855480D03*
%TD*%
D17*
%TO.C,J9*%
X99120000Y-32300000D03*
D16*
X104200000Y-32300000D03*
%TD*%
D17*
%TO.C,J10*%
X112120000Y-32300000D03*
D16*
X117200000Y-32300000D03*
%TD*%
D10*
%TO.C,J13*%
X149207220Y-43708320D03*
D11*
X149207220Y-46248320D03*
X149207220Y-48788320D03*
X149207220Y-51328320D03*
%TD*%
D16*
%TO.C,J17*%
X63957200Y-165500000D03*
D17*
X69037200Y-165500000D03*
%TD*%
%TO.C,J18*%
X82296000Y-165608000D03*
D16*
X77216000Y-165608000D03*
%TD*%
D18*
%TO.C,H1*%
X33500000Y-166500000D03*
D19*
X35900000Y-166500000D03*
X35197056Y-168197056D03*
X33500000Y-168900000D03*
X31802944Y-168197056D03*
X31100000Y-166500000D03*
X31802944Y-164802944D03*
X33500000Y-164100000D03*
X35197056Y-164802944D03*
%TD*%
D18*
%TO.C,H2*%
X144000000Y-166500000D03*
D19*
X146400000Y-166500000D03*
X145697056Y-168197056D03*
X144000000Y-168900000D03*
X142302944Y-168197056D03*
X141600000Y-166500000D03*
X142302944Y-164802944D03*
X144000000Y-164100000D03*
X145697056Y-164802944D03*
%TD*%
D18*
%TO.C,H3*%
X144500000Y-33500000D03*
D19*
X146900000Y-33500000D03*
X146197056Y-35197056D03*
X144500000Y-35900000D03*
X142802944Y-35197056D03*
X142100000Y-33500000D03*
X142802944Y-31802944D03*
X144500000Y-31100000D03*
X146197056Y-31802944D03*
%TD*%
%TO.C,H4*%
X33697056Y-31802944D03*
X32000000Y-31100000D03*
X30302944Y-31802944D03*
X29600000Y-33500000D03*
X30302944Y-35197056D03*
X32000000Y-35900000D03*
X33697056Y-35197056D03*
X34400000Y-33500000D03*
D18*
X32000000Y-33500000D03*
%TD*%
D20*
%TO.C,J19*%
X150664000Y-150434000D03*
X150664000Y-159084000D03*
D21*
X147284000Y-150434000D03*
X147284000Y-159084000D03*
D22*
X147654000Y-154334000D03*
X147654000Y-151784000D03*
X147654000Y-152634000D03*
X147654000Y-153484000D03*
X147654000Y-157734000D03*
X147654000Y-156034000D03*
X147654000Y-155184000D03*
X147654000Y-156884000D03*
X146304000Y-151784000D03*
X146304000Y-152634000D03*
X146304000Y-153484000D03*
X146304000Y-154334000D03*
X146304000Y-155184000D03*
X146304000Y-156034000D03*
X146304000Y-156884000D03*
X146304000Y-157734000D03*
%TD*%
%TO.C,J20*%
X31343600Y-134924800D03*
X31343600Y-135774800D03*
X31343600Y-136624800D03*
X31343600Y-137474800D03*
X31343600Y-138324800D03*
X31343600Y-139174800D03*
X31343600Y-140024800D03*
X31343600Y-140874800D03*
X29993600Y-135774800D03*
X29993600Y-137474800D03*
X29993600Y-136624800D03*
X29993600Y-134924800D03*
X29993600Y-139174800D03*
X29993600Y-140024800D03*
X29993600Y-140874800D03*
X29993600Y-138324800D03*
D21*
X30363600Y-133574800D03*
X30363600Y-142224800D03*
D20*
X26983600Y-133574800D03*
X26983600Y-142224800D03*
%TD*%
D10*
%TO.C,JP1*%
X84328000Y-141732000D03*
D11*
X84328000Y-139192000D03*
%TD*%
%TO.C,JP2*%
X41402000Y-136144000D03*
D10*
X43942000Y-136144000D03*
%TD*%
D23*
%TO.C,SW1*%
X126771400Y-164892600D03*
X126771400Y-169392600D03*
X120271400Y-164892600D03*
X120271400Y-169392600D03*
%TD*%
%TO.C,SW2*%
X46000000Y-28900000D03*
X46000000Y-33400000D03*
X39500000Y-28900000D03*
X39500000Y-33400000D03*
%TD*%
D16*
%TO.C,J2*%
X147574000Y-141986000D03*
D17*
X147574000Y-136906000D03*
%TD*%
M02*
